<svg version="1.1" width="3149.33" height="945.333" viewBox="0 0 2362 709" xmlns="http://www.w3.org/2000/svg" xmlns:xlink="http://www.w3.org/1999/xlink" overflow="hidden"><g stroke="none" fill="#000000" transform="matrix(0.1,0,0,-0.1,0,709)"><path d=" M 3315 6535 C 3255 6528 3162 6514 3110 6505 C 2176 6341 1380 5748 954 4897 C 806 4602 705 4265 658 3905 C 641 3773 641 3347 658 3215 C 705 2858 797 2549 945 2245 C 1104 1921 1281 1678 1541 1425 C 1693 1278 1744 1235 1888 1131 C 2307 831 2782 650 3310 589 C 3462 571 3858 574 4000 594 C 4382 648 4672 735 4981 890 C 5796 1300 6385 2067 6565 2956 C 6666 3450 6640 3972 6493 4450 C 6279 5146 5806 5748 5175 6127 C 4793 6357 4347 6501 3895 6539 C 3736 6553 3452 6551 3315 6535 Z M 3980 6495 C 4531 6427 5055 6207 5486 5862 C 6062 5402 6442 4739 6561 3990 C 6581 3864 6584 3807 6585 3560 C 6585 3307 6582 3260 6562 3135 C 6520 2887 6484 2751 6400 2525 C 6106 1739 5484 1112 4692 806 C 3604 385 2369 649 1539 1479 C 952 2067 635 2891 681 3711 C 690 3880 693 3906 721 4070 C 826 4675 1125 5240 1572 5675 C 2206 6294 3111 6602 3980 6495 Z" stroke="none" stroke-width="1" stroke-dasharray="" stroke-dashoffset="1" stroke-opacity="1" fill="#013A89" fill-opacity="1"/><path d=" M 3752 6458 C 3712 6447 3690 6404 3690 6338 C 3690 6274 3708 6248 3773 6217 C 3839 6186 3854 6160 3847 6088 C 3842 6029 3827 6010 3785 6010 C 3749 6010 3732 6025 3721 6066 C 3710 6109 3690 6108 3690 6065 C 3690 6015 3726 5980 3779 5980 C 3832 5980 3848 5987 3865 6021 C 3883 6055 3884 6156 3867 6190 C 3860 6204 3831 6226 3798 6242 C 3736 6272 3720 6292 3720 6342 C 3721 6438 3818 6470 3844 6382 C 3857 6335 3884 6339 3877 6387 C 3873 6407 3865 6430 3857 6437 C 3836 6458 3788 6468 3752 6458 Z" stroke="none" stroke-width="1" stroke-dasharray="" stroke-dashoffset="1" stroke-opacity="1" fill="#013A89" fill-opacity="1"/><path d=" M 3407 6441 C 3386 6438 3369 6431 3369 6425 C 3369 6420 3386 6413 3407 6410 L 3445 6405 L 3462 6215 C 3471 6111 3479 6013 3479 5998 C 3480 5964 3510 5959 3510 5993 C 3510 6005 3503 6092 3495 6185 C 3474 6430 3473 6420 3515 6420 C 3539 6420 3550 6425 3550 6435 C 3550 6447 3538 6450 3498 6449 C 3469 6448 3428 6444 3407 6441 Z" stroke="none" stroke-width="1" stroke-dasharray="" stroke-dashoffset="1" stroke-opacity="1" fill="#013A89" fill-opacity="1"/><path d=" M 3118 6391 C 3089 6365 3085 6356 3086 6313 C 3087 6286 3095 6248 3103 6228 C 3117 6195 3125 6189 3181 6173 C 3259 6150 3281 6123 3284 6050 C 3285 6004 3282 5995 3258 5977 C 3235 5960 3227 5958 3204 5968 C 3190 5975 3173 5994 3167 6010 C 3156 6038 3137 6049 3126 6032 C 3118 6018 3148 5961 3174 5944 C 3210 5921 3268 5931 3298 5965 C 3323 5994 3327 6049 3309 6113 C 3295 6164 3269 6188 3219 6196 C 3155 6207 3128 6236 3122 6302 C 3118 6351 3120 6359 3141 6374 C 3183 6403 3205 6392 3246 6324 C 3251 6315 3261 6310 3268 6313 C 3284 6324 3263 6376 3233 6400 C 3196 6429 3156 6425 3118 6391 Z" stroke="none" stroke-width="1" stroke-dasharray="" stroke-dashoffset="1" stroke-opacity="1" fill="#013A89" fill-opacity="1"/><path d=" M 4322 6367 C 4309 6350 4110 5948 4110 5938 C 4110 5934 4118 5930 4128 5930 C 4139 5930 4153 5949 4169 5986 C 4182 6017 4198 6044 4204 6046 C 4210 6048 4235 6044 4260 6036 L 4305 6023 L 4305 5954 C 4305 5902 4308 5885 4319 5885 C 4334 5885 4335 5889 4345 6150 C 4348 6252 4354 6342 4356 6351 C 4362 6371 4335 6383 4322 6367 Z M 4325 6253 C 4323 6232 4318 6182 4315 6141 C 4312 6100 4308 6065 4306 6063 C 4298 6055 4228 6073 4224 6084 C 4218 6099 4308 6290 4321 6290 C 4326 6290 4328 6273 4325 6253 Z" stroke="none" stroke-width="1" stroke-dasharray="" stroke-dashoffset="1" stroke-opacity="1" fill="#013A89" fill-opacity="1"/><path d=" M 2824 6340 C 2793 6328 2770 6291 2770 6254 C 2770 6184 2846 5928 2876 5895 C 2908 5860 2971 5860 3005 5895 C 3039 5928 3038 5974 2999 6124 C 2946 6326 2908 6374 2824 6340 Z M 2898 6297 C 2923 6270 2942 6219 2975 6088 C 3007 5964 3007 5937 2975 5912 C 2946 5889 2916 5893 2895 5924 C 2870 5958 2800 6208 2800 6260 C 2800 6283 2837 6320 2860 6320 C 2869 6320 2886 6310 2898 6297 Z" stroke="none" stroke-width="1" stroke-dasharray="" stroke-dashoffset="1" stroke-opacity="1" fill="#013A89" fill-opacity="1"/><path d=" M 4496 6147 C 4464 6058 4427 5957 4414 5922 C 4395 5868 4394 5858 4406 5853 C 4425 5846 4424 5844 4448 5915 C 4460 5948 4485 6019 4504 6074 C 4524 6128 4540 6174 4540 6176 C 4540 6178 4544 6180 4549 6180 C 4554 6180 4557 6094 4556 5988 C 4555 5856 4558 5796 4566 5793 C 4573 5791 4609 5875 4654 5995 C 4745 6241 4747 6250 4727 6250 C 4710 6250 4713 6258 4649 6075 C 4621 5998 4594 5931 4588 5925 C 4581 5918 4579 5971 4582 6102 C 4587 6276 4583 6310 4561 6310 C 4557 6310 4528 6237 4496 6147 Z" stroke="none" stroke-width="1" stroke-dasharray="" stroke-dashoffset="1" stroke-opacity="1" fill="#013A89" fill-opacity="1"/><path d=" M 2501 6230 C 2471 6219 2445 6209 2443 6207 C 2435 6198 2615 5760 2627 5760 C 2647 5760 2643 5782 2605 5871 C 2586 5917 2570 5958 2570 5963 C 2570 5967 2590 5979 2614 5990 C 2639 6000 2664 6018 2670 6030 C 2695 6077 2644 6216 2594 6239 C 2563 6253 2566 6253 2501 6230 Z M 2598 6187 C 2631 6152 2654 6076 2640 6051 C 2626 6023 2571 5995 2558 6008 C 2545 6021 2490 6156 2490 6175 C 2490 6213 2566 6221 2598 6187 Z" stroke="none" stroke-width="1" stroke-dasharray="" stroke-dashoffset="1" stroke-opacity="1" fill="#013A89" fill-opacity="1"/><path d=" M 4777 5965 L 4670 5749 L 4722 5725 C 4829 5675 4856 5693 4945 5873 C 5016 6019 5026 6052 5011 6092 C 5003 6114 4913 6179 4890 6180 C 4887 6180 4836 6083 4777 5965 Z M 4962 6101 C 4994 6072 4994 6071 4981 6033 C 4959 5970 4860 5777 4837 5753 C 4826 5740 4808 5730 4798 5730 C 4776 5730 4720 5757 4720 5768 C 4720 5772 4759 5855 4807 5953 C 4871 6083 4899 6130 4912 6130 C 4922 6130 4944 6117 4962 6101 Z" stroke="none" stroke-width="1" stroke-dasharray="" stroke-dashoffset="1" stroke-opacity="1" fill="#013A89" fill-opacity="1"/><path d=" M 2080 6015 C 2050 5996 2021 5979 2016 5977 C 2009 5975 2231 5600 2259 5568 C 2262 5564 2271 5565 2278 5569 C 2289 5575 2279 5598 2236 5668 C 2205 5717 2180 5762 2180 5767 C 2180 5772 2198 5786 2220 5799 C 2242 5811 2260 5825 2260 5830 C 2260 5851 2238 5849 2199 5825 C 2177 5810 2156 5801 2153 5803 C 2143 5814 2060 5953 2060 5960 C 2060 5964 2080 5980 2105 5994 C 2130 6009 2150 6027 2150 6035 C 2150 6056 2142 6054 2080 6015 Z" stroke="none" stroke-width="1" stroke-dasharray="" stroke-dashoffset="1" stroke-opacity="1" fill="#013A89" fill-opacity="1"/><path d=" M 5274 5948 C 5270 5942 5278 5928 5293 5915 C 5308 5904 5320 5891 5320 5888 C 5320 5884 5264 5802 5195 5706 C 5126 5609 5070 5526 5070 5520 C 5070 5486 5111 5531 5226 5690 C 5297 5789 5357 5870 5361 5870 C 5364 5870 5375 5861 5385 5850 C 5406 5827 5430 5824 5430 5843 C 5430 5863 5283 5963 5274 5948 Z" stroke="none" stroke-width="1" stroke-dasharray="" stroke-dashoffset="1" stroke-opacity="1" fill="#013A89" fill-opacity="1"/><path d=" M 3445 5914 C 3429 5912 3375 5905 3325 5899 C 2437 5789 1650 5123 1386 4259 C 1207 3669 1259 3043 1532 2495 C 1873 1813 2521 1342 3290 1219 C 3466 1190 3806 1187 3977 1213 C 4499 1291 4959 1520 5323 1884 C 5617 2176 5836 2557 5938 2950 C 6174 3861 5864 4808 5138 5397 C 4811 5662 4429 5830 4000 5896 C 3910 5910 3511 5923 3445 5914 Z M 3990 5880 C 4650 5783 5241 5407 5610 4849 C 5819 4533 5942 4196 5986 3814 C 6005 3650 6000 3364 5975 3205 C 5896 2703 5669 2258 5305 1894 C 4863 1451 4278 1210 3645 1210 C 3384 1210 3164 1246 2906 1331 C 2313 1526 1817 1959 1539 2525 C 1408 2792 1331 3065 1306 3358 L 1300 3420 L 2388 3420 C 3812 3421 4616 3429 4612 3444 C 4610 3450 4514 3645 4399 3878 C 4284 4111 4190 4308 4190 4315 C 4190 4355 4230 4340 4303 4271 C 4383 4197 4496 4034 4556 3908 C 4566 3887 4579 3870 4586 3870 C 4607 3870 4744 3931 4763 3949 C 4781 3966 4779 3972 4705 4101 C 4591 4299 4569 4329 4459 4434 C 4351 4538 4350 4539 4404 4589 C 4437 4620 4446 4616 4562 4509 C 4681 4399 4732 4327 4907 4032 C 4913 4021 4938 4029 5022 4069 C 5080 4097 5133 4126 5139 4134 C 5153 4151 5134 4207 5079 4309 C 4990 4474 4934 4547 4775 4702 C 4684 4791 4620 4861 4620 4872 C 4620 4882 4638 4910 4659 4932 C 4694 4970 4700 4973 4721 4963 C 4761 4945 4924 4795 4977 4728 C 5092 4583 5243 4316 5342 4080 L 5386 3975 L 5421 3978 C 5440 3979 5514 3995 5585 4013 L 5715 4045 L 5713 4080 C 5710 4135 5634 4352 5571 4485 C 5393 4858 5095 5183 4733 5397 C 4620 5463 4415 5559 4320 5589 C 3981 5697 3535 5719 3180 5645 C 2862 5579 2496 5402 2294 5217 C 2236 5164 2231 5154 2258 5146 C 2555 5063 2760 4951 2958 4765 C 3089 4642 3202 4451 3255 4266 C 3289 4147 3290 3998 3258 3913 C 3216 3801 3069 3685 2902 3634 C 2839 3614 2803 3610 2702 3610 C 2571 3610 2502 3622 2340 3670 C 2087 3747 1980 3757 1848 3716 C 1756 3688 1686 3649 1569 3564 C 1521 3529 1463 3493 1440 3485 C 1391 3468 1314 3465 1305 3481 C 1301 3486 1299 3535 1299 3588 C 1305 4112 1486 4614 1819 5028 C 2342 5678 3165 6001 3990 5880 Z" stroke="none" stroke-width="1" stroke-dasharray="" stroke-dashoffset="1" stroke-opacity="1" fill="#013A89" fill-opacity="1"/><path d=" M 5543 3762 L 5420 3747 L 5420 3613 C 5420 3329 5350 3039 5220 2785 C 5099 2548 4969 2391 4725 2189 C 4676 2148 4620 2104 4602 2091 C 4571 2069 4568 2069 4550 2085 C 4540 2094 4511 2143 4485 2193 C 4459 2244 4435 2289 4430 2293 C 4420 2304 4280 2234 4280 2219 C 4280 2212 4300 2165 4325 2112 C 4350 2060 4370 2010 4370 2000 C 4370 1962 4087 1856 3909 1828 C 3799 1811 3459 1811 3360 1828 C 3179 1860 2946 1942 2778 2033 C 2697 2076 2640 2114 2513 2205 C 2503 2213 2470 2185 2375 2085 C 2307 2014 2251 1952 2250 1949 C 2250 1940 2392 1831 2460 1788 C 2739 1610 3054 1496 3365 1460 C 3496 1445 3752 1448 3882 1465 C 4301 1520 4638 1650 4926 1866 C 5029 1943 5213 2130 5304 2250 C 5473 2474 5651 2826 5700 3035 C 5742 3217 5779 3517 5780 3688 L 5780 3780 L 5723 3779 C 5691 3778 5610 3770 5543 3762 Z" stroke="none" stroke-width="1" stroke-dasharray="" stroke-dashoffset="1" stroke-opacity="1" fill="#013A89" fill-opacity="1"/><path d=" M 3930 3066 C 3895 3048 3864 3028 3862 3022 C 3860 3014 3912 2896 3925 2882 C 3931 2876 4070 2951 4070 2960 C 4070 2973 4007 3100 4000 3100 C 3997 3100 3966 3085 3930 3066 Z" stroke="none" stroke-width="1" stroke-dasharray="" stroke-dashoffset="1" stroke-opacity="1" fill="#013A89" fill-opacity="1"/><path d=" M 4110 2840 C 4102 2835 4073 2821 4046 2808 C 4019 2796 3995 2780 3993 2773 C 3988 2760 4033 2665 4053 2643 C 4062 2634 4082 2640 4137 2668 L 4209 2705 L 4175 2778 C 4141 2851 4136 2855 4110 2840 Z" stroke="none" stroke-width="1" stroke-dasharray="" stroke-dashoffset="1" stroke-opacity="1" fill="#013A89" fill-opacity="1"/><path d=" M 4183 2568 C 4148 2551 4120 2532 4120 2526 C 4120 2515 4162 2425 4178 2402 C 4184 2393 4204 2398 4263 2425 L 4340 2461 L 4305 2530 C 4286 2569 4264 2600 4257 2599 C 4251 2599 4217 2585 4183 2568 Z" stroke="none" stroke-width="1" stroke-dasharray="" stroke-dashoffset="1" stroke-opacity="1" fill="#013A89" fill-opacity="1"/><path d=" M 1824 5844 C 1793 5829 1770 5794 1770 5764 C 1770 5736 1809 5675 1894 5568 C 2004 5430 2054 5403 2113 5450 C 2148 5478 2157 5528 2134 5571 C 2110 5618 1953 5818 1927 5835 C 1891 5858 1857 5861 1824 5844 Z M 1903 5810 C 1931 5788 2051 5639 2095 5573 C 2115 5542 2121 5524 2116 5505 C 2107 5471 2068 5453 2036 5468 C 1995 5486 1800 5734 1800 5767 C 1800 5785 1845 5830 1863 5830 C 1871 5830 1889 5821 1903 5810 Z" stroke="none" stroke-width="1" stroke-dasharray="" stroke-dashoffset="1" stroke-opacity="1" fill="#013A89" fill-opacity="1"/><path d=" M 5399 5579 C 5314 5484 5245 5402 5245 5396 C 5245 5390 5269 5363 5298 5336 C 5340 5296 5353 5289 5360 5300 C 5367 5311 5357 5326 5324 5355 L 5279 5395 L 5340 5463 C 5374 5500 5407 5530 5413 5530 C 5419 5530 5439 5515 5457 5498 C 5485 5471 5493 5468 5500 5480 C 5506 5490 5498 5503 5469 5528 L 5430 5562 L 5491 5631 C 5548 5695 5573 5712 5582 5693 C 5584 5688 5600 5672 5618 5656 C 5641 5635 5653 5629 5661 5637 C 5669 5645 5657 5662 5620 5696 C 5591 5723 5565 5746 5561 5748 C 5556 5749 5484 5673 5399 5579 Z" stroke="none" stroke-width="1" stroke-dasharray="" stroke-dashoffset="1" stroke-opacity="1" fill="#013A89" fill-opacity="1"/><path d=" M 1481 5526 C 1471 5515 1481 5495 1531 5425 C 1565 5378 1590 5337 1587 5334 C 1584 5331 1541 5350 1490 5375 C 1406 5417 1370 5425 1370 5402 C 1370 5397 1427 5367 1497 5335 C 1593 5292 1644 5262 1701 5214 C 1743 5179 1783 5150 1789 5150 C 1816 5150 1794 5180 1726 5238 C 1667 5287 1636 5325 1575 5420 C 1533 5486 1497 5540 1495 5540 C 1494 5540 1487 5534 1481 5526 Z" stroke="none" stroke-width="1" stroke-dasharray="" stroke-dashoffset="1" stroke-opacity="1" fill="#013A89" fill-opacity="1"/><path d=" M 5735 5474 C 5708 5450 5630 5381 5563 5322 C 5495 5264 5440 5212 5440 5207 C 5440 5196 5532 5090 5541 5090 C 5562 5090 5554 5121 5524 5153 C 5505 5172 5490 5195 5490 5202 C 5490 5209 5562 5278 5650 5355 C 5738 5432 5810 5500 5810 5507 C 5810 5531 5785 5520 5735 5474 Z" stroke="none" stroke-width="1" stroke-dasharray="" stroke-dashoffset="1" stroke-opacity="1" fill="#013A89" fill-opacity="1"/><path d=" M 1257 5249 C 1225 5203 1211 5172 1215 5162 C 1220 5148 1226 5151 1250 5180 C 1276 5212 1279 5214 1297 5199 C 1313 5184 1474 5071 1598 4986 C 1630 4964 1644 4960 1652 4968 C 1659 4975 1662 4981 1659 4983 C 1657 4986 1579 5040 1485 5105 C 1392 5170 1311 5227 1305 5232 C 1299 5237 1302 5251 1313 5270 C 1330 5298 1329 5321 1312 5320 C 1308 5319 1283 5287 1257 5249 Z" stroke="none" stroke-width="1" stroke-dasharray="" stroke-dashoffset="1" stroke-opacity="1" fill="#013A89" fill-opacity="1"/><path d=" M 5800 5154 C 5704 5085 5618 5025 5610 5020 C 5598 5013 5602 5002 5635 4955 C 5672 4900 5694 4881 5706 4893 C 5709 4896 5698 4919 5681 4944 C 5664 4968 5650 4993 5650 4999 C 5650 5005 5684 5032 5725 5060 L 5800 5110 L 5827 5071 C 5854 5032 5880 5018 5880 5042 C 5880 5048 5869 5068 5855 5086 C 5841 5104 5830 5122 5830 5127 C 5831 5133 5958 5227 5981 5238 C 5985 5239 6002 5218 6019 5191 C 6040 5158 6056 5143 6066 5147 C 6074 5150 6080 5154 6080 5157 C 6080 5169 5995 5280 5986 5279 C 5980 5279 5896 5223 5800 5154 Z" stroke="none" stroke-width="1" stroke-dasharray="" stroke-dashoffset="1" stroke-opacity="1" fill="#013A89" fill-opacity="1"/><path d=" M 1131 5046 C 1117 5029 1094 5045 1340 4903 C 1462 4833 1539 4795 1545 4801 C 1559 4815 1540 4828 1360 4930 C 1269 4981 1183 5031 1169 5042 C 1146 5057 1140 5058 1131 5046 Z" stroke="none" stroke-width="1" stroke-dasharray="" stroke-dashoffset="1" stroke-opacity="1" fill="#013A89" fill-opacity="1"/><path d=" M 5984 4919 C 5796 4822 5780 4808 5780 4745 C 5780 4681 5837 4638 5894 4660 C 5935 4675 5921 4695 5872 4692 C 5838 4689 5829 4693 5815 4714 C 5782 4764 5807 4788 5995 4886 C 6064 4921 6128 4950 6137 4950 C 6167 4950 6200 4921 6200 4894 C 6200 4880 6189 4859 6176 4847 C 6158 4830 6154 4820 6161 4809 C 6169 4798 6176 4801 6200 4828 C 6240 4871 6240 4912 6201 4951 C 6156 4995 6122 4990 5984 4919 Z" stroke="none" stroke-width="1" stroke-dasharray="" stroke-dashoffset="1" stroke-opacity="1" fill="#013A89" fill-opacity="1"/><path d=" M 1043 4855 C 1031 4847 1017 4825 1010 4806 C 991 4746 1026 4698 1108 4671 C 1160 4654 1191 4662 1240 4707 C 1287 4749 1311 4751 1375 4720 C 1436 4691 1451 4659 1423 4622 C 1407 4600 1394 4595 1362 4595 C 1340 4595 1318 4591 1314 4587 C 1301 4574 1332 4560 1376 4560 C 1422 4560 1443 4577 1461 4628 C 1479 4681 1459 4714 1387 4750 C 1309 4789 1280 4788 1233 4746 C 1175 4695 1159 4689 1116 4702 C 1082 4713 1030 4760 1030 4779 C 1030 4784 1040 4800 1052 4815 C 1070 4839 1078 4841 1112 4836 C 1141 4831 1150 4833 1150 4844 C 1150 4872 1078 4880 1043 4855 Z" stroke="none" stroke-width="1" stroke-dasharray="" stroke-dashoffset="1" stroke-opacity="1" fill="#013A89" fill-opacity="1"/><path d=" M 6200 4693 C 6074 4647 5931 4585 5913 4568 C 5880 4537 5881 4468 5915 4435 C 5947 4402 5982 4403 6093 4441 C 6244 4493 6330 4539 6346 4575 C 6361 4612 6355 4646 6327 4678 C 6311 4695 6296 4700 6261 4699 C 6236 4699 6208 4696 6200 4693 Z M 6318 4638 C 6337 4597 6319 4573 6242 4538 C 6143 4493 5998 4440 5973 4440 C 5953 4440 5910 4482 5910 4501 C 5910 4530 5967 4566 6090 4616 C 6247 4679 6296 4684 6318 4638 Z" stroke="none" stroke-width="1" stroke-dasharray="" stroke-dashoffset="1" stroke-opacity="1" fill="#013A89" fill-opacity="1"/><path d=" M 912 4522 C 892 4502 854 4403 863 4394 C 869 4388 1262 4260 1298 4253 C 1313 4249 1320 4252 1320 4263 C 1320 4274 1290 4288 1220 4311 C 1165 4329 1120 4347 1120 4351 C 1120 4355 1125 4371 1130 4385 L 1140 4412 L 1252 4409 C 1353 4406 1365 4407 1368 4423 C 1371 4438 1360 4440 1258 4440 L 1145 4440 L 1129 4468 C 1109 4504 1049 4532 984 4538 C 942 4541 929 4539 912 4522 Z M 1022 4499 C 1043 4494 1072 4479 1086 4466 C 1109 4446 1112 4439 1106 4406 C 1102 4386 1093 4367 1086 4364 C 1069 4357 900 4408 900 4420 C 900 4440 922 4486 937 4498 C 957 4513 974 4513 1022 4499 Z" stroke="none" stroke-width="1" stroke-dasharray="" stroke-dashoffset="1" stroke-opacity="1" fill="#013A89" fill-opacity="1"/><path d=" M 6330 4410 C 6223 4380 6027 4328 5996 4321 C 5966 4314 5947 4290 5972 4290 C 5979 4290 6050 4308 6130 4330 C 6337 4387 6345 4383 6199 4302 C 6154 4276 6115 4249 6112 4243 C 6109 4233 6137 4230 6231 4230 C 6299 4230 6350 4226 6345 4222 C 6339 4217 6295 4203 6245 4191 C 6045 4141 6000 4127 6000 4118 C 6000 4103 6045 4112 6225 4160 C 6313 4183 6404 4207 6428 4212 C 6453 4218 6470 4227 6470 4236 C 6470 4247 6444 4250 6331 4250 C 6254 4250 6189 4254 6186 4258 C 6183 4262 6236 4297 6302 4336 C 6454 4422 6463 4447 6330 4410 Z" stroke="none" stroke-width="1" stroke-dasharray="" stroke-dashoffset="1" stroke-opacity="1" fill="#013A89" fill-opacity="1"/><path d=" M 817 4223 C 812 4214 790 4104 790 4084 C 790 4078 825 4066 873 4056 C 1042 4022 1255 3982 1257 3984 C 1266 3992 1285 4132 1279 4136 C 1262 4146 1253 4130 1246 4081 C 1242 4053 1236 4028 1231 4026 C 1219 4018 1056 4051 1049 4063 C 1045 4068 1047 4090 1053 4112 C 1060 4140 1059 4155 1052 4162 C 1039 4175 1020 4135 1020 4095 C 1020 4082 1016 4069 1011 4066 C 1003 4061 833 4094 825 4102 C 823 4104 827 4129 832 4158 C 840 4194 840 4214 833 4221 C 827 4227 820 4228 817 4223 Z" stroke="none" stroke-width="1" stroke-dasharray="" stroke-dashoffset="1" stroke-opacity="1" fill="#013A89" fill-opacity="1"/><path d=" M 6285 4069 C 6181 4054 6081 4041 6063 4041 C 6033 4040 6011 4025 6024 4013 C 6029 4007 6301 4044 6348 4056 C 6360 4060 6370 4058 6370 4052 C 6370 4047 6325 4023 6270 3999 C 6215 3976 6171 3952 6173 3946 C 6175 3940 6224 3930 6283 3925 C 6437 3910 6438 3900 6290 3880 C 6061 3850 6032 3844 6046 3831 C 6054 3823 6516 3883 6527 3893 C 6539 3906 6490 3919 6376 3934 C 6305 3943 6244 3952 6242 3955 C 6239 3958 6263 3971 6296 3985 C 6463 4058 6500 4076 6497 4084 C 6492 4100 6483 4099 6285 4069 Z" stroke="none" stroke-width="1" stroke-dasharray="" stroke-dashoffset="1" stroke-opacity="1" fill="#013A89" fill-opacity="1"/><path d=" M 765 3970 C 761 3964 760 3956 763 3954 C 766 3951 830 3931 907 3909 C 983 3887 1069 3863 1099 3854 C 1128 3846 1149 3835 1144 3831 C 1139 3827 1052 3817 950 3810 C 776 3798 728 3788 748 3768 C 756 3760 1210 3803 1229 3814 C 1244 3823 1243 3840 1228 3845 C 1221 3847 1168 3863 1110 3880 C 1052 3898 965 3925 915 3941 C 790 3980 773 3983 765 3970 Z" stroke="none" stroke-width="1" stroke-dasharray="" stroke-dashoffset="1" stroke-opacity="1" fill="#013A89" fill-opacity="1"/><path d=" M 6515 3754 C 6510 3753 6419 3750 6313 3747 C 6154 3744 6117 3740 6095 3726 C 6043 3692 6039 3618 6087 3580 C 6109 3563 6128 3560 6229 3560 C 6421 3560 6540 3571 6540 3588 C 6540 3600 6511 3601 6334 3595 C 6129 3588 6129 3588 6104 3611 C 6074 3639 6074 3660 6103 3688 C 6124 3708 6140 3710 6328 3716 C 6440 3720 6533 3727 6537 3732 C 6543 3744 6529 3759 6515 3754 Z" stroke="none" stroke-width="1" stroke-dasharray="" stroke-dashoffset="1" stroke-opacity="1" fill="#013A89" fill-opacity="1"/><path d=" M 744 3669 C 741 3663 740 3656 744 3653 C 747 3650 820 3646 907 3644 C 994 3642 1100 3638 1142 3635 C 1216 3631 1245 3640 1224 3660 C 1210 3672 752 3681 744 3669 Z" stroke="none" stroke-width="1" stroke-dasharray="" stroke-dashoffset="1" stroke-opacity="1" fill="#013A89" fill-opacity="1"/><path d=" M 965 3534 C 849 3527 752 3521 748 3521 C 743 3520 740 3513 740 3504 C 740 3488 770 3488 1024 3506 C 1074 3510 1100 3508 1096 3502 C 1093 3496 1013 3461 920 3424 C 790 3373 750 3353 752 3341 C 754 3331 765 3325 780 3326 C 794 3327 877 3330 965 3334 C 1184 3343 1230 3349 1230 3367 C 1230 3380 1216 3381 1143 3376 C 909 3360 880 3359 880 3369 C 880 3374 956 3408 1049 3445 C 1203 3505 1240 3527 1223 3544 C 1219 3547 1207 3549 1196 3548 C 1184 3548 1081 3541 965 3534 Z" stroke="none" stroke-width="1" stroke-dasharray="" stroke-dashoffset="1" stroke-opacity="1" fill="#013A89" fill-opacity="1"/><path d=" M 6065 3481 C 6043 3460 6073 3453 6233 3441 C 6327 3434 6407 3426 6409 3424 C 6419 3415 6394 3407 6230 3365 C 5974 3300 5975 3288 6235 3271 C 6334 3265 6441 3257 6473 3253 C 6520 3248 6530 3250 6530 3263 C 6530 3281 6492 3287 6320 3296 C 6251 3300 6188 3306 6180 3310 C 6164 3319 6170 3321 6395 3379 C 6495 3405 6536 3419 6538 3431 C 6540 3444 6517 3449 6378 3459 C 6288 3466 6182 3475 6142 3479 C 6102 3483 6067 3484 6065 3481 Z" stroke="none" stroke-width="1" stroke-dasharray="" stroke-dashoffset="1" stroke-opacity="1" fill="#013A89" fill-opacity="1"/><path d=" M 951 3220 C 788 3193 745 3181 768 3166 C 777 3160 841 3169 1069 3205 C 1185 3224 1215 3218 1226 3176 C 1234 3142 1216 3113 1178 3102 C 1160 3096 1065 3079 968 3065 C 837 3045 790 3034 790 3024 C 790 3016 796 3010 804 3010 C 816 3010 1053 3046 1172 3066 C 1258 3081 1289 3163 1231 3221 C 1195 3257 1183 3257 951 3220 Z" stroke="none" stroke-width="1" stroke-dasharray="" stroke-dashoffset="1" stroke-opacity="1" fill="#013A89" fill-opacity="1"/><path d=" M 6032 3193 C 6035 3179 6061 3172 6180 3154 C 6260 3142 6365 3125 6413 3118 C 6495 3104 6526 3108 6504 3130 C 6499 3135 6448 3146 6390 3154 C 6233 3178 6150 3191 6097 3201 C 6032 3213 6028 3213 6032 3193 Z" stroke="none" stroke-width="1" stroke-dasharray="" stroke-dashoffset="1" stroke-opacity="1" fill="#013A89" fill-opacity="1"/><path d=" M 6019 3061 C 5999 3041 5990 3022 5990 3000 C 5990 2963 6037 2910 6069 2910 C 6100 2910 6094 2933 6060 2948 C 6008 2972 6011 3042 6065 3056 C 6092 3063 6258 3032 6354 3003 C 6393 2991 6420 2976 6433 2957 L 6454 2930 L 6433 2903 C 6421 2886 6400 2873 6381 2870 C 6345 2864 6338 2847 6371 2842 C 6406 2836 6439 2849 6456 2875 C 6477 2908 6476 2966 6454 2991 C 6434 3013 6346 3042 6212 3070 C 6080 3098 6055 3096 6019 3061 Z" stroke="none" stroke-width="1" stroke-dasharray="" stroke-dashoffset="1" stroke-opacity="1" fill="#013A89" fill-opacity="1"/><path d=" M 5956 2864 C 5952 2855 5951 2846 5952 2845 C 5954 2844 5979 2830 6008 2814 C 6059 2786 6061 2784 6055 2751 C 6051 2733 6044 2706 6039 2693 C 6030 2668 6028 2667 5961 2674 C 5904 2679 5891 2677 5886 2665 C 5883 2656 5886 2648 5893 2646 C 5907 2641 6314 2597 6350 2596 C 6364 2595 6376 2601 6378 2610 C 6380 2620 6314 2667 6177 2753 C 6064 2823 5970 2880 5967 2880 C 5965 2880 5959 2873 5956 2864 Z M 6191 2705 C 6291 2646 6312 2630 6291 2630 C 6273 2630 6066 2661 6063 2664 C 6059 2667 6091 2760 6095 2760 C 6096 2760 6140 2735 6191 2705 Z" stroke="none" stroke-width="1" stroke-dasharray="" stroke-dashoffset="1" stroke-opacity="1" fill="#013A89" fill-opacity="1"/><path d=" M 1148 2846 C 1110 2835 1080 2819 1080 2812 C 1080 2805 1087 2783 1095 2763 C 1106 2737 1114 2730 1121 2737 C 1129 2745 1129 2754 1121 2768 C 1108 2793 1117 2801 1189 2823 C 1257 2845 1283 2844 1303 2822 C 1326 2797 1324 2765 1298 2741 C 1275 2719 1062 2645 992 2634 C 959 2629 945 2631 930 2645 C 902 2671 904 2716 935 2736 C 949 2745 960 2759 960 2766 C 960 2801 896 2762 881 2718 C 873 2696 874 2680 884 2655 C 912 2588 959 2585 1132 2639 C 1268 2681 1294 2692 1328 2723 C 1359 2752 1358 2813 1325 2845 C 1295 2876 1243 2877 1148 2846 Z" stroke="none" stroke-width="1" stroke-dasharray="" stroke-dashoffset="1" stroke-opacity="1" fill="#013A89" fill-opacity="1"/><path d=" M 1339 2601 C 1309 2587 1213 2544 1127 2505 C 1016 2455 971 2431 972 2420 C 974 2412 979 2405 983 2406 C 988 2406 1059 2438 1141 2475 C 1223 2512 1293 2541 1296 2537 C 1299 2534 1269 2501 1228 2463 C 1058 2305 1030 2275 1039 2262 C 1045 2251 1095 2270 1264 2346 C 1386 2401 1480 2449 1480 2457 C 1480 2464 1476 2470 1470 2470 C 1465 2470 1390 2439 1304 2400 C 1217 2362 1145 2332 1142 2334 C 1140 2337 1167 2365 1201 2397 C 1398 2577 1426 2610 1403 2623 C 1398 2625 1370 2616 1339 2601 Z" stroke="none" stroke-width="1" stroke-dasharray="" stroke-dashoffset="1" stroke-opacity="1" fill="#013A89" fill-opacity="1"/><path d=" M 5826 2524 C 5822 2515 5821 2506 5822 2505 C 5824 2503 5914 2461 6023 2410 C 6131 2359 6220 2313 6220 2308 C 6220 2303 6213 2286 6205 2271 C 6191 2244 6194 2230 6212 2230 C 6221 2230 6300 2391 6300 2409 C 6300 2432 6272 2418 6260 2390 C 6253 2373 6244 2357 6240 2355 C 6233 2350 5992 2461 5889 2515 C 5834 2545 5834 2545 5826 2524 Z" stroke="none" stroke-width="1" stroke-dasharray="" stroke-dashoffset="1" stroke-opacity="1" fill="#013A89" fill-opacity="1"/><path d=" M 5750 2375 C 5736 2358 5732 2361 5972 2227 C 6116 2146 6162 2125 6170 2135 C 6184 2152 6183 2152 6010 2248 C 5980 2264 5911 2303 5858 2333 C 5779 2378 5759 2386 5750 2375 Z" stroke="none" stroke-width="1" stroke-dasharray="" stroke-dashoffset="1" stroke-opacity="1" fill="#013A89" fill-opacity="1"/><path d=" M 1445 2310 C 1401 2284 1311 2233 1245 2196 C 1179 2158 1123 2126 1121 2124 C 1119 2122 1120 2114 1124 2105 C 1129 2090 1133 2091 1157 2108 C 1173 2118 1265 2171 1363 2225 C 1460 2278 1542 2326 1545 2330 C 1548 2334 1544 2342 1537 2347 C 1529 2354 1500 2342 1445 2310 Z" stroke="none" stroke-width="1" stroke-dasharray="" stroke-dashoffset="1" stroke-opacity="1" fill="#013A89" fill-opacity="1"/><path d=" M 5657 2230 C 5622 2202 5612 2147 5634 2106 C 5665 2050 5910 1890 5965 1890 C 6003 1890 6035 1912 6056 1951 C 6090 2017 6051 2065 5876 2179 C 5753 2259 5707 2269 5657 2230 Z M 5773 2199 C 5838 2166 5988 2060 6010 2032 C 6021 2019 6030 1998 6030 1987 C 6030 1962 5993 1920 5971 1920 C 5937 1920 5706 2071 5671 2116 C 5644 2150 5645 2168 5672 2197 C 5699 2226 5719 2226 5773 2199 Z" stroke="none" stroke-width="1" stroke-dasharray="" stroke-dashoffset="1" stroke-opacity="1" fill="#013A89" fill-opacity="1"/><path d=" M 1543 2210 C 1522 2202 1226 2007 1206 1989 C 1200 1983 1200 1976 1207 1969 C 1215 1961 1264 1989 1384 2069 C 1562 2188 1595 2200 1624 2158 C 1633 2146 1640 2128 1640 2118 C 1640 2108 1647 2100 1655 2100 C 1690 2100 1657 2194 1618 2205 C 1573 2218 1565 2218 1543 2210 Z" stroke="none" stroke-width="1" stroke-dasharray="" stroke-dashoffset="1" stroke-opacity="1" fill="#013A89" fill-opacity="1"/><path d=" M 5546 2073 C 5531 2057 5548 2039 5669 1940 C 5741 1882 5799 1830 5799 1824 C 5800 1816 5770 1823 5723 1840 C 5415 1953 5435 1947 5427 1926 C 5423 1916 5481 1861 5600 1761 C 5699 1678 5784 1610 5789 1610 C 5795 1610 5802 1615 5805 1620 C 5812 1632 5764 1677 5631 1783 C 5551 1847 5528 1870 5545 1870 C 5549 1870 5626 1843 5717 1810 C 5888 1748 5920 1740 5920 1764 C 5920 1772 5842 1843 5748 1922 C 5557 2081 5555 2082 5546 2073 Z" stroke="none" stroke-width="1" stroke-dasharray="" stroke-dashoffset="1" stroke-opacity="1" fill="#013A89" fill-opacity="1"/><path d=" M 1533 1917 C 1433 1839 1351 1770 1351 1763 C 1349 1729 1349 1729 1663 1971 C 1733 2026 1759 2061 1728 2059 C 1721 2059 1633 1995 1533 1917 Z" stroke="none" stroke-width="1" stroke-dasharray="" stroke-dashoffset="1" stroke-opacity="1" fill="#013A89" fill-opacity="1"/><path d=" M 1784 1959 C 1781 1953 1796 1929 1819 1906 L 1861 1864 L 1795 1802 C 1759 1768 1724 1740 1717 1740 C 1711 1740 1692 1756 1677 1776 C 1653 1805 1646 1809 1634 1799 C 1621 1789 1624 1781 1655 1750 C 1674 1730 1690 1712 1690 1709 C 1690 1705 1659 1675 1621 1641 L 1551 1580 L 1509 1625 C 1472 1665 1450 1674 1450 1650 C 1450 1639 1540 1540 1551 1540 C 1561 1540 1900 1848 1900 1857 C 1900 1867 1809 1970 1800 1970 C 1795 1970 1788 1965 1784 1959 Z" stroke="none" stroke-width="1" stroke-dasharray="" stroke-dashoffset="1" stroke-opacity="1" fill="#013A89" fill-opacity="1"/><path d=" M 5328 1827 C 5263 1772 5266 1715 5340 1646 C 5397 1593 5421 1589 5500 1620 C 5528 1631 5557 1640 5565 1640 C 5587 1640 5660 1563 5660 1541 C 5660 1513 5621 1470 5596 1470 C 5584 1470 5564 1477 5551 1486 C 5531 1501 5526 1501 5513 1488 C 5500 1474 5502 1470 5534 1450 C 5560 1435 5578 1430 5597 1435 C 5696 1460 5719 1560 5642 1633 C 5593 1679 5567 1683 5495 1655 C 5424 1626 5402 1630 5359 1676 C 5314 1725 5306 1748 5325 1776 C 5334 1790 5352 1806 5366 1812 C 5386 1822 5395 1820 5420 1801 C 5451 1779 5470 1780 5470 1804 C 5470 1825 5424 1850 5388 1850 C 5368 1850 5344 1841 5328 1827 Z" stroke="none" stroke-width="1" stroke-dasharray="" stroke-dashoffset="1" stroke-opacity="1" fill="#013A89" fill-opacity="1"/><path d=" M 1955 1753 C 1930 1747 1873 1693 1854 1658 C 1846 1643 1840 1617 1840 1600 C 1840 1576 1836 1570 1819 1570 C 1767 1570 1701 1502 1693 1441 C 1688 1404 1691 1399 1736 1357 C 1775 1321 1787 1314 1798 1323 C 1812 1334 2060 1616 2089 1653 C 2101 1668 2100 1673 2084 1691 C 2041 1738 1993 1762 1955 1753 Z M 2033 1694 L 2061 1669 L 1994 1594 L 1927 1519 L 1898 1546 C 1857 1586 1861 1620 1911 1675 C 1960 1728 1991 1733 2033 1694 Z M 1878 1521 C 1890 1510 1900 1498 1900 1493 C 1900 1488 1873 1455 1841 1420 L 1782 1355 L 1756 1379 C 1719 1414 1715 1435 1740 1475 C 1780 1540 1833 1558 1878 1521 Z" stroke="none" stroke-width="1" stroke-dasharray="" stroke-dashoffset="1" stroke-opacity="1" fill="#013A89" fill-opacity="1"/><path d=" M 4876 1448 C 4887 1382 4887 1380 4859 1363 C 4834 1348 4832 1349 4786 1384 C 4723 1432 4702 1419 4760 1369 C 4784 1348 4802 1330 4800 1328 C 4743 1292 4739 1291 4695 1321 C 4646 1354 4640 1356 4640 1335 C 4640 1327 4654 1314 4670 1305 C 4703 1288 4708 1273 4685 1264 C 4658 1253 4658 1221 4685 1174 C 4718 1119 4739 1125 4708 1182 C 4686 1221 4686 1222 4704 1236 C 4729 1254 4956 1380 4963 1380 C 4967 1380 4975 1360 4982 1336 C 4989 1312 5000 1292 5005 1292 C 5019 1291 5013 1328 4992 1370 C 4975 1404 4961 1410 4920 1399 C 4911 1396 4904 1404 4902 1420 C 4896 1469 4889 1490 4879 1490 C 4872 1490 4871 1476 4876 1448 Z" stroke="none" stroke-width="1" stroke-dasharray="" stroke-dashoffset="1" stroke-opacity="1" fill="#013A89" fill-opacity="1"/><path d=" M 2530 1370 C 2517 1343 2503 1320 2498 1320 C 2493 1320 2472 1329 2450 1340 C 2406 1362 2390 1365 2390 1350 C 2390 1344 2410 1330 2435 1318 C 2460 1306 2480 1290 2480 1283 C 2480 1276 2464 1242 2444 1206 C 2407 1137 2402 1134 2276 1106 C 2258 1101 2251 1095 2257 1089 C 2262 1084 2288 1086 2324 1095 C 2357 1104 2385 1109 2387 1106 C 2389 1104 2379 1079 2365 1050 C 2339 998 2339 968 2366 1004 C 2387 1033 2570 1396 2570 1409 C 2570 1434 2552 1417 2530 1370 Z" stroke="none" stroke-width="1" stroke-dasharray="" stroke-dashoffset="1" stroke-opacity="1" fill="#013A89" fill-opacity="1"/><path d=" M 2541 1181 C 2485 1071 2440 972 2440 961 C 2440 941 2498 900 2529 900 C 2556 900 2620 976 2620 1009 C 2620 1030 2604 1019 2586 985 C 2576 966 2559 943 2549 935 C 2533 920 2529 920 2501 935 C 2482 944 2470 958 2470 970 C 2470 1003 2576 1195 2597 1198 C 2644 1206 2743 1257 2735 1270 C 2733 1274 2703 1264 2670 1247 C 2636 1231 2606 1221 2602 1224 C 2599 1228 2610 1260 2628 1296 C 2646 1331 2660 1365 2660 1370 C 2660 1405 2629 1356 2541 1181 Z" stroke="none" stroke-width="1" stroke-dasharray="" stroke-dashoffset="1" stroke-opacity="1" fill="#013A89" fill-opacity="1"/><path d=" M 4835 1254 C 4742 1201 4732 1194 4746 1180 C 4752 1174 4783 1186 4834 1215 C 4878 1240 4915 1258 4918 1255 C 4921 1252 4914 1236 4902 1220 C 4878 1189 4874 1165 4890 1155 C 4909 1143 4900 1135 4830 1096 C 4791 1074 4760 1050 4760 1043 C 4760 1022 4776 1027 4861 1076 C 4937 1120 4942 1121 4960 1105 C 4970 1096 4984 1075 4990 1059 C 5001 1034 5000 1027 4985 1010 C 4974 997 4954 990 4933 990 C 4886 990 4895 966 4943 962 C 5016 956 5045 1032 4995 1100 C 4981 1119 4970 1135 4970 1136 C 4970 1138 4997 1153 5030 1172 C 5063 1190 5090 1210 5090 1217 C 5090 1238 5069 1232 5007 1195 C 4921 1143 4891 1151 4930 1215 C 4954 1253 4954 1294 4930 1297 C 4922 1298 4879 1279 4835 1254 Z" stroke="none" stroke-width="1" stroke-dasharray="" stroke-dashoffset="1" stroke-opacity="1" fill="#013A89" fill-opacity="1"/><path d=" M 4340 1246 C 4340 1239 4346 1214 4354 1192 C 4372 1143 4368 1139 4285 1114 C 4218 1094 4205 1086 4214 1072 C 4218 1066 4250 1071 4297 1086 C 4339 1099 4376 1107 4379 1104 C 4382 1101 4385 1048 4385 987 C 4385 870 4383 862 4320 763 C 4301 734 4315 722 4340 745 C 4375 777 4403 850 4414 943 L 4425 1033 L 4455 991 C 4498 928 4574 864 4625 847 C 4669 832 4686 835 4672 856 C 4668 862 4653 870 4639 873 C 4600 883 4526 944 4477 1008 C 4435 1062 4410 1102 4410 1114 C 4410 1117 4448 1131 4495 1146 C 4542 1160 4580 1176 4580 1181 C 4580 1199 4559 1198 4484 1175 C 4441 1161 4402 1150 4398 1150 C 4394 1150 4384 1175 4375 1205 C 4361 1255 4340 1280 4340 1246 Z" stroke="none" stroke-width="1" stroke-dasharray="" stroke-dashoffset="1" stroke-opacity="1" fill="#013A89" fill-opacity="1"/><path d=" M 2999 1243 C 2998 1238 2999 1225 3000 1213 C 3002 1186 2991 1185 2924 1205 C 2897 1213 2865 1220 2853 1220 C 2811 1220 2830 1203 2888 1188 C 2919 1179 2998 1158 3064 1141 C 3129 1123 3184 1111 3187 1114 C 3199 1126 3174 1139 3108 1155 C 3029 1175 3020 1181 3020 1223 C 3020 1246 3002 1263 2999 1243 Z" stroke="none" stroke-width="1" stroke-dasharray="" stroke-dashoffset="1" stroke-opacity="1" fill="#013A89" fill-opacity="1"/><path d=" M 3375 1168 C 3373 1161 3369 1139 3368 1120 C 3365 1088 3362 1085 3333 1085 C 3315 1085 3296 1080 3291 1075 C 3275 1059 3250 718 3264 704 C 3270 697 3312 689 3357 685 C 3455 677 3444 656 3461 887 C 3474 1068 3471 1080 3417 1080 C 3388 1080 3387 1080 3392 1125 C 3397 1167 3385 1197 3375 1168 Z M 3344 1054 C 3356 1049 3360 1034 3360 996 C 3360 917 3352 898 3321 902 C 3296 905 3295 906 3298 970 C 3300 1006 3307 1041 3312 1048 C 3324 1062 3323 1062 3344 1054 Z M 3442 975 C 3438 897 3432 885 3401 895 C 3378 902 3375 923 3386 1004 C 3392 1047 3395 1051 3419 1048 C 3445 1045 3445 1044 3442 975 Z M 3344 798 C 3341 758 3336 722 3334 719 C 3332 715 3319 715 3304 718 C 3278 723 3278 725 3284 774 C 3287 802 3290 835 3290 848 C 3290 866 3296 870 3321 870 L 3351 870 L 3344 798 Z M 3428 830 C 3430 811 3429 776 3425 752 C 3419 712 3416 709 3392 712 C 3366 715 3365 716 3368 775 C 3373 858 3378 872 3403 868 C 3420 866 3426 857 3428 830 Z" stroke="none" stroke-width="1" stroke-dasharray="" stroke-dashoffset="1" stroke-opacity="1" fill="#013A89" fill-opacity="1"/><path d=" M 3897 1164 C 3894 1160 3893 1145 3897 1130 C 3902 1103 3900 1101 3854 1095 C 3748 1081 3756 1093 3765 977 C 3768 921 3775 857 3779 835 L 3786 795 L 3857 798 L 3929 800 L 3935 763 C 3949 684 3943 688 4033 696 C 4145 705 4150 709 4150 775 C 4150 805 4146 830 4140 830 C 4135 830 4130 813 4130 791 C 4130 770 4124 748 4117 742 C 4110 736 4074 728 4038 724 C 3972 717 3971 718 3965 743 C 3952 794 3961 804 4025 813 C 4058 818 4089 825 4094 830 C 4099 835 4098 886 4091 952 C 4072 1128 4081 1113 3997 1109 C 3927 1105 3925 1106 3922 1130 C 3918 1158 3907 1174 3897 1164 Z M 4055 1039 C 4064 989 4054 980 3989 980 C 3939 980 3930 989 3930 1039 C 3930 1077 3935 1080 3996 1080 L 4048 1080 L 4055 1039 Z M 3904 1054 C 3907 1045 3910 1024 3910 1006 C 3910 973 3909 973 3854 966 C 3823 962 3795 961 3793 964 C 3791 966 3788 987 3787 1011 L 3785 1055 L 3825 1061 C 3891 1071 3898 1071 3904 1054 Z M 4071 910 C 4079 854 4069 843 4005 838 L 3956 835 L 3948 880 C 3944 905 3942 930 3944 937 C 3949 950 3988 958 4035 956 C 4063 955 4065 952 4071 910 Z M 3920 908 C 3920 890 3923 865 3926 854 C 3931 834 3926 832 3875 825 C 3843 821 3814 822 3810 827 C 3806 831 3800 856 3797 882 C 3790 934 3792 936 3878 939 C 3919 940 3920 939 3920 908 Z" stroke="none" stroke-width="1" stroke-dasharray="" stroke-dashoffset="1" stroke-opacity="1" fill="#013A89" fill-opacity="1"/><path d=" M 2833 1103 C 2824 1082 2817 1047 2816 1025 L 2815 985 L 2873 970 C 2938 954 2940 950 2914 858 C 2897 799 2883 788 2860 815 C 2846 832 2820 835 2820 821 C 2820 804 2873 769 2894 772 C 2915 775 2924 794 2950 899 C 2961 941 2962 942 2993 935 C 3091 915 3089 914 3106 955 C 3114 976 3122 1011 3123 1033 L 3125 1074 L 3015 1106 C 2867 1150 2853 1150 2833 1103 Z M 2993 1085 C 3042 1072 3086 1058 3091 1054 C 3104 1046 3102 1017 3085 977 L 3070 942 L 2983 966 C 2934 980 2883 993 2868 997 C 2835 1004 2831 1030 2855 1086 C 2866 1112 2874 1120 2887 1116 C 2897 1113 2945 1099 2993 1085 Z" stroke="none" stroke-width="1" stroke-dasharray="" stroke-dashoffset="1" stroke-opacity="1" fill="#013A89" fill-opacity="1"/><path d=" M 3506 1108 C 3503 1090 3496 996 3490 900 C 3484 804 3478 714 3477 700 C 3474 666 3494 658 3498 693 C 3501 720 3514 728 3525 710 C 3528 705 3549 700 3570 700 C 3599 700 3612 705 3620 719 C 3637 751 3631 828 3609 881 L 3588 930 L 3615 1014 C 3652 1128 3650 1134 3573 1138 L 3511 1141 L 3506 1108 Z M 3599 1111 C 3614 1101 3608 1066 3574 979 L 3556 932 L 3583 870 C 3598 836 3610 796 3610 780 C 3610 753 3585 715 3571 723 C 3568 725 3550 733 3533 740 C 3501 754 3500 756 3505 805 C 3508 832 3515 910 3520 978 C 3525 1045 3532 1105 3535 1110 C 3543 1122 3580 1123 3599 1111 Z" stroke="none" stroke-width="1" stroke-dasharray="" stroke-dashoffset="1" stroke-opacity="1" fill="#013A89" fill-opacity="1"/><path d=" M 2788 886 C 2728 831 2721 820 2744 820 C 2760 820 2870 917 2870 931 C 2870 951 2842 936 2788 886 Z" stroke="none" stroke-width="1" stroke-dasharray="" stroke-dashoffset="1" stroke-opacity="1" fill="#013A89" fill-opacity="1"/><path d=" M 3000 896 C 3000 893 3007 873 3014 853 C 3022 832 3034 796 3040 773 C 3050 732 3063 720 3074 738 C 3077 743 3069 780 3057 821 C 3041 871 3029 896 3017 898 C 3008 900 3000 899 3000 896 Z" stroke="none" stroke-width="1" stroke-dasharray="" stroke-dashoffset="1" stroke-opacity="1" fill="#013A89" fill-opacity="1"/><path d=" M 22165 5792 C 22132 5768 22126 5744 22120 5616 C 22115 5490 22114 5482 22078 5410 C 22036 5325 22036 5306 22081 5248 C 22097 5228 22110 5208 22110 5203 C 22110 5186 21982 5020 21970 5020 C 21966 5020 21960 5084 21957 5163 C 21952 5314 21940 5370 21909 5401 C 21884 5426 21828 5426 21772 5400 C 21713 5373 21682 5305 21674 5189 C 21664 5037 21653 5024 21633 5143 C 21623 5203 21616 5220 21590 5243 C 21548 5280 21475 5281 21402 5244 C 21312 5199 21265 5123 21231 4968 C 21219 4914 21210 4847 21210 4818 C 21210 4737 21238 4562 21261 4493 C 21285 4419 21309 4387 21350 4370 C 21378 4358 21384 4360 21428 4391 C 21523 4458 21599 4535 21615 4581 C 21641 4652 21646 4779 21626 4832 C 21611 4870 21610 4885 21620 4931 C 21626 4961 21634 4997 21637 5013 C 21647 5061 21660 5053 21660 4998 C 21663 4704 21675 4605 21714 4545 C 21750 4491 21819 4509 21919 4598 L 21973 4646 L 21979 4735 C 21984 4808 21988 4824 22000 4821 C 22048 4809 22064 4810 22114 4833 C 22176 4862 22180 4860 22194 4794 C 22202 4757 22233 4726 22275 4713 C 22294 4707 22306 4696 22308 4682 C 22312 4653 22254 4574 22193 4525 C 22166 4504 22127 4468 22104 4445 C 22081 4422 22040 4395 22009 4383 C 21979 4372 21919 4346 21875 4327 C 21796 4291 21615 4238 21532 4226 C 21430 4211 21394 4139 21441 4043 C 21462 3999 21501 3970 21539 3970 C 21550 3970 21592 3982 21632 3996 C 21712 4024 21709 4022 21830 4078 C 21877 4099 21929 4122 21945 4128 C 22005 4150 22148 4190 22166 4190 C 22177 4190 22216 4206 22254 4225 C 22293 4244 22331 4260 22339 4260 C 22348 4260 22382 4269 22415 4279 C 22461 4293 22491 4296 22545 4291 C 22641 4283 22643 4265 22559 4173 C 22525 4136 22491 4101 22484 4097 C 22466 4087 22466 4054 22484 4047 C 22491 4044 22508 4047 22521 4054 C 22582 4085 22733 4130 22774 4130 C 22816 4130 22865 4155 22914 4201 C 22957 4242 22960 4248 22960 4295 C 22960 4386 22895 4475 22801 4512 C 22760 4527 22720 4534 22655 4536 C 22606 4537 22553 4538 22538 4539 L 22510 4540 L 22530 4590 C 22557 4658 22557 4767 22531 4819 C 22508 4862 22494 4876 22432 4910 C 22344 4959 22352 4984 22477 5047 C 22538 5077 22557 5093 22578 5128 C 22603 5172 22603 5173 22585 5206 C 22563 5246 22519 5263 22438 5263 C 22400 5262 22380 5266 22380 5274 C 22380 5291 22456 5399 22517 5470 C 22546 5504 22573 5543 22576 5557 C 22586 5596 22562 5632 22507 5659 C 22464 5680 22453 5682 22414 5673 L 22369 5663 L 22339 5705 C 22294 5768 22197 5816 22165 5792 Z" stroke="none" stroke-width="1" stroke-dasharray="" stroke-dashoffset="1" stroke-opacity="1" fill="#013A89" fill-opacity="1"/><path d=" M 13774 5725 C 13707 5690 13674 5649 13649 5568 C 13638 5530 13614 5481 13597 5460 C 13503 5344 13360 5160 13337 5125 C 13304 5076 13300 5016 13329 5000 C 13355 4986 13352 4985 13406 5030 C 13460 5075 13530 5110 13566 5110 C 13588 5110 13590 5106 13590 5058 C 13590 4995 13587 4991 13459 4882 C 13326 4768 13306 4717 13361 4638 C 13374 4621 13378 4605 13373 4596 C 13365 4581 13305 4510 13121 4296 C 13064 4229 13011 4161 13004 4143 C 12982 4092 12986 3998 13011 3966 C 13054 3912 13123 3895 13182 3926 C 13198 3935 13241 3962 13277 3986 C 13312 4010 13345 4030 13349 4030 C 13354 4030 13365 4009 13375 3983 C 13384 3956 13401 3920 13411 3902 C 13421 3885 13427 3864 13424 3856 C 13419 3844 13311 3780 13259 3758 C 13226 3745 13200 3699 13200 3655 C 13200 3599 13224 3570 13276 3563 C 13312 3558 13330 3564 13411 3607 C 13588 3700 13607 3703 13643 3641 L 13661 3611 L 13623 3592 C 13602 3582 13553 3563 13513 3550 C 13431 3525 13407 3500 13416 3451 C 13424 3415 13490 3351 13523 3348 C 13576 3345 13677 3357 13740 3375 C 13770 3384 13813 3396 13834 3401 C 13949 3430 14077 3473 14092 3488 C 14101 3497 14115 3531 14122 3562 C 14149 3670 14115 3708 13988 3709 C 13923 3710 13924 3709 13941 3790 C 13954 3853 13941 3847 14207 3912 C 14263 3926 14287 3955 14306 4029 C 14337 4148 14304 4176 14148 4167 C 14094 4164 14050 4164 14050 4167 C 14050 4170 14066 4192 14085 4216 C 14104 4239 14136 4290 14156 4328 C 14197 4410 14205 4418 14274 4445 C 14335 4470 14360 4510 14360 4583 C 14360 4637 14318 4736 14291 4745 C 14282 4747 14245 4754 14209 4759 C 14172 4764 14131 4775 14119 4784 C 14048 4830 13963 4805 13939 4731 C 13914 4657 13887 4696 13910 4773 C 13920 4806 13934 4820 14012 4870 C 14113 4935 14136 4965 14152 5049 C 14173 5159 14160 5182 14054 5211 C 13965 5236 13955 5235 13893 5203 C 13842 5178 13838 5177 13785 5190 C 13755 5197 13730 5206 13730 5209 C 13730 5218 13785 5250 13801 5250 C 13817 5250 13966 5336 14011 5372 C 14120 5459 14121 5611 14015 5679 C 13978 5702 13852 5750 13827 5750 C 13825 5750 13801 5739 13774 5725 Z M 13640 4581 C 13640 4524 13599 4483 13554 4494 C 13519 4503 13524 4524 13573 4564 C 13620 4604 13640 4609 13640 4581 Z M 13685 4123 C 13675 4047 13670 4030 13659 4030 C 13651 4030 13650 4049 13654 4092 C 13662 4159 13666 4170 13681 4170 C 13687 4170 13689 4152 13685 4123 Z" stroke="none" stroke-width="1" stroke-dasharray="" stroke-dashoffset="1" stroke-opacity="1" fill="#013A89" fill-opacity="1"/><path d=" M 16778 5666 C 16723 5636 16628 5557 16619 5533 C 16605 5496 16608 5445 16626 5406 C 16656 5344 16626 5298 16477 5176 C 16427 5135 16342 5066 16289 5023 C 16065 4840 15959 4691 15903 4482 C 15882 4403 15879 4171 15899 4103 C 15912 4054 15967 4010 16012 4010 C 16049 4010 16178 4120 16185 4158 C 16201 4232 16214 4264 16244 4298 C 16262 4318 16295 4360 16317 4390 C 16371 4463 16426 4515 16434 4501 C 16454 4469 16422 4380 16322 4192 C 16247 4051 16230 3900 16285 3853 C 16313 3828 16376 3822 16411 3840 C 16445 3859 16433 3832 16387 3787 C 16323 3724 16261 3638 16239 3580 C 16210 3503 16203 3363 16224 3269 C 16243 3186 16286 3120 16321 3120 C 16346 3120 16396 3145 16434 3177 L 16463 3201 L 16496 3169 C 16538 3128 16582 3121 16688 3139 C 16754 3149 16774 3150 16780 3140 C 16784 3134 16793 3096 16799 3058 C 16813 2971 16852 2887 16890 2860 C 16996 2784 17132 2754 17345 2758 C 17494 2761 17519 2767 17548 2810 C 17577 2853 17576 2904 17546 2960 C 17514 3021 17484 3037 17428 3025 C 17404 3019 17315 3015 17230 3015 C 17092 3015 17070 3017 17028 3037 C 16977 3060 16950 3099 16950 3150 C 16950 3183 16988 3230 17015 3230 C 17023 3230 17048 3246 17070 3266 C 17091 3285 17144 3325 17187 3353 C 17293 3424 17366 3515 17374 3585 C 17377 3612 17384 3667 17391 3705 C 17402 3770 17401 3779 17380 3827 C 17339 3923 17235 3987 17116 3991 C 17035 3994 17027 4004 17075 4046 C 17194 4151 17198 4156 17205 4203 C 17209 4228 17209 4266 17205 4289 C 17199 4327 17201 4332 17255 4397 C 17311 4465 17311 4465 17306 4519 C 17296 4614 17232 4684 17116 4724 L 17053 4746 L 17073 4786 C 17084 4809 17106 4834 17124 4843 C 17174 4870 17278 4890 17366 4890 C 17471 4890 17504 4883 17536 4854 C 17557 4834 17560 4824 17555 4797 C 17536 4712 17466 4624 17385 4586 C 17335 4562 17329 4550 17339 4495 C 17344 4468 17356 4441 17365 4434 C 17401 4408 17542 4447 17623 4506 C 17673 4543 17751 4653 17777 4724 C 17809 4814 17789 4943 17732 5003 C 17620 5122 17439 5143 17104 5077 C 17026 5062 17015 5064 16967 5108 C 16933 5140 16881 5143 16850 5115 C 16838 5104 16817 5072 16804 5044 C 16775 4983 16717 4927 16651 4896 C 16613 4878 16527 4830 16460 4789 C 16452 4784 16427 4771 16405 4759 C 16383 4747 16335 4716 16298 4689 C 16261 4662 16226 4640 16220 4640 C 16186 4640 16248 4783 16335 4906 C 16389 4981 16630 5214 16681 5240 C 16732 5266 16756 5265 16810 5233 C 16870 5198 16964 5194 17007 5226 C 17071 5274 17101 5363 17085 5462 C 17079 5497 17068 5515 17023 5558 C 16910 5666 16837 5698 16778 5666 Z M 16744 4675 C 16741 4618 16727 4480 16723 4480 C 16721 4480 16706 4495 16690 4513 C 16664 4543 16625 4566 16566 4584 C 16541 4593 16549 4600 16640 4649 C 16712 4688 16746 4696 16744 4675 Z M 16706 4297 C 16702 4278 16686 4245 16669 4224 C 16630 4174 16439 4000 16423 4000 C 16388 4000 16403 4050 16472 4164 C 16499 4209 16527 4250 16533 4257 C 16555 4280 16695 4347 16704 4339 C 16709 4335 16710 4316 16706 4297 Z M 16707 4035 C 16710 4026 16705 4013 16694 4005 C 16644 3966 16570 3920 16559 3920 C 16546 3920 16679 4049 16693 4050 C 16697 4050 16703 4043 16707 4035 Z M 17164 3709 C 17171 3689 17165 3666 17133 3594 C 17093 3507 17092 3505 17056 3502 L 17019 3499 L 17034 3529 C 17049 3558 17049 3592 17034 3692 C 17029 3724 17031 3729 17052 3733 C 17065 3736 17093 3737 17115 3736 C 17148 3735 17156 3731 17164 3709 Z M 16650 3599 C 16650 3548 16661 3527 16717 3469 C 16751 3433 16758 3421 16748 3413 C 16741 3407 16679 3381 16611 3355 C 16493 3309 16486 3308 16473 3325 C 16466 3336 16460 3360 16460 3379 C 16460 3421 16488 3581 16496 3589 C 16503 3597 16621 3638 16638 3639 C 16646 3640 16650 3626 16650 3599 Z" stroke="none" stroke-width="1" stroke-dasharray="" stroke-dashoffset="1" stroke-opacity="1" fill="#013A89" fill-opacity="1"/><path d=" M 11225 5536 C 11170 5515 11144 5482 11136 5421 C 11131 5380 11134 5360 11150 5323 C 11169 5279 11170 5274 11155 5223 C 11146 5193 11117 5138 11090 5099 C 11062 5061 11040 5025 11040 5020 C 11040 5014 11052 5005 11066 5000 C 11087 4991 11102 4996 11158 5029 C 11195 5051 11246 5074 11271 5081 C 11313 5092 11323 5091 11374 5070 C 11471 5031 11573 5063 11642 5155 C 11737 5281 11683 5404 11489 5499 C 11389 5547 11293 5561 11225 5536 Z" stroke="none" stroke-width="1" stroke-dasharray="" stroke-dashoffset="1" stroke-opacity="1" fill="#013A89" fill-opacity="1"/><path d=" M 19315 5354 C 19238 5314 19224 5273 19251 5168 C 19273 5081 19275 4983 19256 4840 C 19234 4674 19233 4673 19055 4625 C 18923 4590 18884 4572 18854 4537 C 18802 4475 18813 4434 18893 4393 C 18935 4372 18960 4367 19022 4366 C 19111 4365 19112 4363 19076 4292 C 19064 4266 19040 4209 19025 4165 C 18989 4062 18983 4049 18889 3900 C 18788 3739 18623 3551 18505 3462 C 18347 3343 18321 3290 18421 3290 C 18464 3290 18697 3412 18760 3468 C 18790 3494 18828 3524 18844 3534 C 18889 3563 19036 3707 19102 3787 C 19134 3827 19175 3890 19192 3927 C 19210 3964 19243 4025 19267 4063 C 19291 4100 19310 4134 19310 4139 C 19310 4144 19316 4153 19324 4159 C 19338 4171 19350 4160 19407 4084 C 19449 4028 19551 3864 19575 3815 C 19588 3788 19617 3743 19639 3715 C 19661 3688 19694 3640 19712 3610 C 19789 3482 19972 3346 20102 3321 C 20131 3315 20187 3304 20225 3296 C 20343 3270 20368 3274 20490 3336 C 20551 3366 20600 3394 20600 3398 C 20600 3416 20534 3444 20432 3470 C 20408 3476 20381 3489 20372 3498 C 20362 3508 20332 3528 20305 3544 C 20244 3580 20159 3641 20104 3689 C 20082 3709 20042 3741 20016 3760 C 19958 3803 19897 3850 19847 3891 C 19826 3908 19759 3985 19698 4061 C 19576 4215 19510 4271 19443 4280 L 19400 4285 L 19430 4369 C 19446 4415 19465 4457 19472 4461 C 19514 4488 19733 4540 19803 4540 C 19868 4541 19889 4557 19924 4634 C 19950 4692 19950 4694 19934 4739 C 19909 4809 19880 4830 19812 4830 C 19781 4830 19741 4826 19723 4821 C 19706 4816 19661 4810 19623 4808 L 19555 4805 L 19552 4838 C 19550 4861 19560 4895 19584 4943 C 19629 5034 19642 5093 19631 5157 C 19619 5237 19562 5301 19465 5346 C 19407 5374 19357 5376 19315 5354 Z" stroke="none" stroke-width="1" stroke-dasharray="" stroke-dashoffset="1" stroke-opacity="1" fill="#013A89" fill-opacity="1"/><path d=" M 8655 5334 C 8551 5283 8528 5222 8578 5124 C 8594 5092 8615 5031 8625 4990 C 8635 4949 8647 4909 8653 4903 C 8658 4896 8666 4840 8671 4778 C 8679 4678 8677 4627 8664 4515 C 8663 4499 8658 4418 8655 4335 C 8650 4222 8644 4177 8630 4150 C 8621 4131 8607 4098 8601 4078 C 8588 4039 8562 4021 8370 3917 C 8340 3901 8308 3882 8300 3875 C 8276 3854 8126 3754 8109 3748 C 8095 3743 8094 3750 8097 3798 C 8099 3830 8102 3871 8105 3890 C 8108 3909 8114 3959 8120 4000 C 8125 4041 8134 4100 8140 4130 C 8147 4160 8154 4200 8156 4219 C 8159 4238 8165 4260 8169 4269 C 8174 4278 8180 4303 8184 4325 C 8192 4375 8211 4460 8218 4480 C 8224 4499 8225 4501 8245 4585 C 8281 4736 8284 4779 8259 4846 C 8234 4913 8197 4951 8121 4987 C 8008 5041 7895 5024 7842 4946 C 7814 4905 7812 4863 7833 4748 C 7847 4676 7848 4638 7840 4524 C 7830 4386 7816 4340 7786 4340 C 7778 4340 7740 4326 7700 4309 C 7660 4292 7603 4275 7573 4270 C 7499 4258 7433 4224 7415 4190 C 7393 4148 7387 4089 7402 4061 C 7423 4023 7519 3980 7600 3973 C 7666 3967 7673 3969 7721 3999 C 7749 4016 7776 4030 7781 4030 C 7808 4030 7773 3900 7729 3839 C 7715 3818 7711 3801 7715 3778 C 7718 3760 7722 3715 7724 3677 C 7727 3606 7743 3576 7788 3559 C 7800 3554 7810 3547 7810 3542 C 7810 3538 7778 3514 7739 3490 C 7700 3465 7646 3431 7618 3413 C 7553 3372 7524 3366 7475 3383 C 7422 3402 7378 3394 7345 3360 C 7300 3313 7280 3192 7311 3154 C 7340 3119 7402 3098 7473 3098 C 7590 3099 7709 3145 7845 3241 C 7883 3268 7976 3329 8050 3375 C 8124 3421 8203 3471 8225 3487 C 8337 3565 8569 3720 8574 3720 C 8576 3720 8580 3694 8583 3663 C 8603 3480 8690 3333 8803 3291 C 8818 3285 8830 3276 8830 3272 C 8830 3247 8756 3173 8681 3122 C 8555 3036 8535 2997 8602 2969 C 8628 2959 8643 2959 8695 2973 C 8730 2982 8776 2990 8797 2990 C 8818 2990 8862 2999 8895 3010 C 8928 3020 8987 3039 9025 3051 C 9117 3079 9186 3119 9243 3177 C 9298 3232 9313 3271 9314 3358 L 9315 3421 L 9260 3474 C 9218 3514 9181 3536 9105 3568 C 8946 3635 8955 3629 8952 3686 C 8950 3715 8958 3768 8969 3809 C 8980 3848 8989 3883 8989 3885 C 8990 3921 9007 3963 9028 3983 C 9063 4015 9271 4110 9307 4110 C 9344 4110 9422 4134 9454 4155 C 9495 4182 9530 4252 9530 4305 C 9530 4397 9457 4450 9330 4450 C 9292 4450 9251 4446 9238 4442 C 9225 4437 9186 4436 9150 4439 C 9092 4444 9084 4448 9065 4475 C 9049 4500 9045 4520 9046 4590 C 9047 4637 9053 4704 9060 4740 C 9067 4776 9072 4854 9072 4913 C 9071 5017 9070 5024 9032 5104 C 8964 5247 8848 5342 8735 5346 C 8706 5348 8671 5342 8655 5334 Z" stroke="none" stroke-width="1" stroke-dasharray="" stroke-dashoffset="1" stroke-opacity="1" fill="#013A89" fill-opacity="1"/><path d=" M 12170 5160 C 12122 5154 11932 5096 11605 4989 C 11556 4973 11450 4932 11370 4899 C 11290 4865 11209 4832 11190 4825 C 11062 4776 10704 4633 10652 4609 C 10617 4593 10587 4580 10584 4580 C 10582 4580 10500 4541 10402 4493 C 10305 4445 10182 4389 10130 4369 C 10013 4324 10001 4308 10004 4191 C 10005 4127 10009 4107 10030 4077 C 10061 4032 10107 4010 10171 4010 C 10227 4010 10270 4026 10333 4068 C 10391 4109 10568 4199 10665 4239 C 10709 4257 10792 4291 10850 4315 C 10908 4339 10991 4372 11035 4390 C 11079 4407 11124 4425 11135 4430 C 11146 4435 11200 4457 11255 4478 C 11310 4500 11380 4529 11410 4543 C 11546 4605 11694 4659 11860 4707 C 11890 4716 11926 4727 11940 4731 C 11954 4736 12046 4760 12145 4784 C 12417 4852 12429 4856 12450 4875 C 12474 4897 12475 4936 12455 5002 C 12428 5094 12411 5118 12357 5145 C 12304 5171 12273 5174 12170 5160 Z" stroke="none" stroke-width="1" stroke-dasharray="" stroke-dashoffset="1" stroke-opacity="1" fill="#013A89" fill-opacity="1"/><path d=" M 14910 5089 C 14802 5060 14782 5053 14703 5010 C 14585 4947 14521 4901 14438 4820 C 14377 4761 14360 4739 14360 4717 C 14360 4689 14393 4648 14435 4624 C 14454 4613 14454 4611 14429 4584 C 14396 4547 14383 4515 14360 4416 C 14341 4332 14341 4273 14357 4110 C 14362 4063 14365 3994 14364 3955 C 14362 3917 14354 3687 14345 3445 C 14337 3203 14328 2956 14325 2895 C 14318 2711 14348 2314 14374 2242 C 14382 2218 14394 2158 14399 2109 C 14405 2047 14413 2013 14425 2000 C 14449 1974 14496 1974 14510 2000 C 14516 2011 14518 2020 14515 2020 C 14511 2020 14518 2036 14530 2055 C 14554 2094 14585 2171 14604 2240 C 14612 2268 14617 2336 14616 2415 C 14615 2487 14619 2583 14626 2629 C 14637 2706 14639 2780 14640 3213 C 14640 3366 14651 3442 14678 3473 C 14686 3482 14712 3495 14734 3501 C 14813 3521 14834 3535 14940 3639 C 15021 3719 15056 3761 15080 3810 C 15165 3980 15170 4050 15108 4222 C 15082 4293 15019 4394 14994 4404 C 14967 4414 14980 4452 15038 4523 C 15142 4652 15184 4726 15210 4826 C 15236 4925 15228 4959 15161 5033 C 15104 5097 15013 5117 14910 5089 Z M 14860 4792 C 14860 4778 14759 4622 14702 4547 C 14673 4510 14650 4471 14650 4462 C 14650 4449 14645 4450 14630 4470 C 14619 4484 14607 4504 14604 4515 C 14600 4526 14587 4552 14574 4572 L 14550 4609 L 14573 4630 C 14606 4661 14695 4720 14775 4762 C 14849 4801 14860 4805 14860 4792 Z M 14793 4295 C 14842 4271 14860 4256 14879 4221 C 14928 4132 14916 3979 14852 3875 C 14813 3813 14676 3685 14659 3696 C 14646 3704 14648 4167 14661 4215 C 14667 4237 14673 4283 14673 4318 L 14674 4380 L 14702 4353 C 14718 4338 14759 4312 14793 4295 Z" stroke="none" stroke-width="1" stroke-dasharray="" stroke-dashoffset="1" stroke-opacity="1" fill="#013A89" fill-opacity="1"/><path d=" M 11515 4468 C 11499 4463 11461 4449 11432 4438 C 11387 4420 11375 4419 11355 4430 C 11314 4452 11285 4434 11195 4333 C 10993 4107 10911 3937 10909 3744 C 10908 3634 10947 3564 11025 3534 C 11076 3515 11116 3519 11183 3549 C 11208 3561 11234 3570 11240 3570 C 11251 3570 11250 3147 11238 3135 C 11235 3132 11213 3127 11190 3126 C 11141 3122 11104 3092 11115 3064 C 11119 3053 11146 3025 11176 3000 C 11205 2975 11239 2937 11251 2915 C 11281 2859 11328 2812 11363 2804 C 11429 2790 11539 2853 11541 2908 C 11541 2917 11543 2939 11545 2955 C 11547 2972 11551 3014 11554 3050 C 11557 3086 11562 3126 11564 3140 C 11567 3154 11574 3198 11580 3237 C 11587 3277 11596 3313 11601 3316 C 11616 3325 11641 3299 11661 3255 C 11686 3201 11685 3173 11655 3134 C 11641 3116 11630 3095 11630 3087 C 11630 3057 11743 3030 11870 3028 C 11942 3027 11962 3030 11991 3048 C 12043 3080 12068 3110 12081 3162 C 12097 3220 12084 3269 12040 3320 C 12024 3339 12010 3358 12010 3361 C 12010 3365 11986 3386 11958 3408 C 11878 3468 11789 3499 11686 3503 C 11639 3505 11597 3510 11593 3513 C 11590 3517 11585 3553 11584 3592 C 11582 3632 11579 3676 11578 3690 C 11577 3704 11577 3750 11578 3793 C 11580 3863 11582 3872 11606 3893 C 11677 3953 11780 4062 11803 4101 C 11817 4125 11836 4175 11845 4212 C 11861 4274 11861 4282 11846 4328 C 11815 4421 11723 4480 11610 4479 C 11574 4479 11532 4474 11515 4468 Z M 11570 4213 C 11569 4188 11503 4080 11454 4024 C 11373 3933 11302 3898 11316 3958 C 11331 4022 11354 4082 11372 4106 C 11412 4156 11570 4242 11570 4213 Z" stroke="none" stroke-width="1" stroke-dasharray="" stroke-dashoffset="1" stroke-opacity="1" fill="#013A89" fill-opacity="1"/><path d=" M 21175 4148 C 21113 4114 21084 4072 21038 3946 C 20986 3805 20973 3755 20965 3667 C 20957 3566 20967 3538 21032 3491 C 21083 3453 21140 3449 21168 3481 C 21177 3492 21203 3519 21224 3541 C 21261 3578 21264 3584 21277 3682 C 21288 3763 21288 3800 21279 3855 C 21271 3907 21271 3936 21279 3965 C 21303 4052 21288 4128 21243 4149 C 21213 4163 21201 4162 21175 4148 Z" stroke="none" stroke-width="1" stroke-dasharray="" stroke-dashoffset="1" stroke-opacity="1" fill="#013A89" fill-opacity="1"/><path d=" M 22110 4077 C 22085 4070 22038 4048 22005 4028 C 21972 4009 21920 3985 21890 3975 C 21809 3949 21780 3932 21770 3905 C 21758 3875 21769 3845 21805 3808 C 21844 3767 21873 3763 21941 3793 C 21973 3807 22000 3814 22000 3809 C 22000 3804 21984 3777 21965 3749 C 21927 3693 21923 3664 21942 3580 C 21956 3517 21953 3514 21860 3505 C 21824 3501 21737 3478 21665 3453 C 21594 3429 21517 3404 21495 3398 C 21433 3381 21384 3345 21356 3297 C 21326 3246 21324 3221 21346 3174 C 21371 3122 21433 3090 21508 3090 C 21569 3090 21584 3096 21759 3190 C 21795 3210 21912 3261 21951 3275 C 22011 3297 22022 3284 22014 3206 C 22001 3079 21927 2860 21896 2860 C 21880 2860 21841 2903 21793 2973 C 21760 3020 21735 3031 21712 3008 C 21693 2989 21698 2967 21740 2879 C 21764 2830 21780 2782 21780 2760 C 21780 2669 21912 2571 22004 2594 C 22061 2608 22164 2736 22176 2809 C 22179 2829 22186 2859 22191 2875 C 22232 3013 22260 3153 22260 3221 C 22260 3266 22265 3302 22273 3312 C 22281 3322 22330 3335 22415 3350 C 22588 3379 22625 3396 22650 3455 C 22676 3515 22675 3542 22648 3567 C 22607 3605 22554 3612 22405 3599 C 22258 3586 22240 3590 22240 3637 C 22240 3650 22260 3691 22283 3728 C 22385 3885 22394 3918 22358 3990 C 22319 4067 22210 4105 22110 4077 Z" stroke="none" stroke-width="1" stroke-dasharray="" stroke-dashoffset="1" stroke-opacity="1" fill="#013A89" fill-opacity="1"/><path d=" M 10767 3227 C 10685 3147 10669 3126 10656 3080 C 10636 3013 10635 2923 10655 2877 C 10706 2755 10891 2737 10965 2848 C 10995 2894 11003 2941 10989 2990 C 10975 3036 10985 3057 11046 3122 C 11112 3191 11124 3214 11109 3241 C 11103 3254 11092 3260 11082 3257 C 11072 3254 11034 3240 10995 3227 C 10957 3213 10921 3205 10916 3207 C 10912 3210 10911 3230 10914 3251 C 10920 3290 10904 3320 10875 3320 C 10868 3320 10819 3278 10767 3227 Z" stroke="none" stroke-width="1" stroke-dasharray="" stroke-dashoffset="1" stroke-opacity="1" fill="#013A89" fill-opacity="1"/><path d=" M 8146 1814 C 8115 1783 8139 1720 8181 1720 C 8207 1720 8240 1751 8240 1775 C 8240 1800 8207 1830 8178 1830 C 8169 1830 8154 1823 8146 1814 Z" stroke="none" stroke-width="1" stroke-dasharray="" stroke-dashoffset="1" stroke-opacity="1" fill="#013A89" fill-opacity="1"/><path d=" M 8360 1810 C 8349 1799 8340 1783 8340 1775 C 8340 1754 8376 1720 8398 1720 C 8422 1720 8450 1751 8450 1777 C 8450 1800 8420 1830 8397 1830 C 8388 1830 8371 1821 8360 1810 Z" stroke="none" stroke-width="1" stroke-dasharray="" stroke-dashoffset="1" stroke-opacity="1" fill="#013A89" fill-opacity="1"/><path d=" M 8566 1814 C 8535 1783 8559 1720 8601 1720 C 8627 1720 8660 1751 8660 1775 C 8660 1800 8627 1830 8598 1830 C 8589 1830 8574 1823 8566 1814 Z" stroke="none" stroke-width="1" stroke-dasharray="" stroke-dashoffset="1" stroke-opacity="1" fill="#013A89" fill-opacity="1"/><path d=" M 10586 1814 C 10555 1783 10579 1720 10621 1720 C 10647 1720 10680 1751 10680 1775 C 10680 1800 10647 1830 10618 1830 C 10609 1830 10594 1823 10586 1814 Z" stroke="none" stroke-width="1" stroke-dasharray="" stroke-dashoffset="1" stroke-opacity="1" fill="#013A89" fill-opacity="1"/><path d=" M 11976 1814 C 11945 1783 11969 1720 12011 1720 C 12037 1720 12070 1751 12070 1775 C 12070 1800 12037 1830 12008 1830 C 11999 1830 11984 1823 11976 1814 Z" stroke="none" stroke-width="1" stroke-dasharray="" stroke-dashoffset="1" stroke-opacity="1" fill="#013A89" fill-opacity="1"/><path d=" M 20606 1814 C 20575 1783 20599 1720 20641 1720 C 20667 1720 20700 1751 20700 1775 C 20700 1800 20667 1830 20638 1830 C 20629 1830 20614 1823 20606 1814 Z" stroke="none" stroke-width="1" stroke-dasharray="" stroke-dashoffset="1" stroke-opacity="1" fill="#013A89" fill-opacity="1"/><path d=" M 21716 1814 C 21685 1783 21709 1720 21751 1720 C 21777 1720 21810 1751 21810 1775 C 21810 1800 21777 1830 21748 1830 C 21739 1830 21724 1823 21716 1814 Z" stroke="none" stroke-width="1" stroke-dasharray="" stroke-dashoffset="1" stroke-opacity="1" fill="#013A89" fill-opacity="1"/><path d=" M 13303 1813 C 13271 1807 13230 1754 13230 1719 C 13230 1697 13225 1690 13210 1690 C 13199 1690 13190 1683 13190 1675 C 13190 1667 13199 1660 13210 1660 C 13229 1660 13230 1653 13230 1540 C 13230 1433 13228 1418 13210 1400 C 13199 1389 13190 1378 13190 1375 C 13190 1372 13235 1370 13290 1370 C 13350 1370 13390 1374 13390 1380 C 13390 1386 13386 1390 13381 1390 C 13376 1390 13364 1397 13356 1406 C 13343 1418 13340 1446 13340 1541 L 13340 1660 L 13365 1660 C 13381 1660 13390 1666 13390 1675 C 13390 1684 13381 1690 13365 1690 C 13342 1690 13340 1693 13340 1741 C 13340 1777 13344 1790 13353 1788 C 13359 1785 13367 1775 13368 1764 C 13374 1735 13386 1727 13414 1734 C 13444 1741 13450 1779 13425 1800 C 13409 1813 13339 1821 13303 1813 Z" stroke="none" stroke-width="1" stroke-dasharray="" stroke-dashoffset="1" stroke-opacity="1" fill="#013A89" fill-opacity="1"/><path d=" M 7310 1801 C 7310 1795 7316 1790 7324 1790 C 7332 1790 7346 1783 7354 1774 C 7377 1751 7377 1445 7354 1412 C 7346 1400 7332 1390 7324 1390 C 7316 1390 7310 1386 7310 1380 C 7310 1367 7593 1367 7642 1380 C 7692 1394 7730 1441 7730 1488 C 7730 1535 7698 1588 7665 1596 L 7639 1603 L 7674 1632 C 7704 1656 7710 1668 7710 1700 C 7710 1791 7684 1803 7473 1808 C 7358 1811 7310 1809 7310 1801 Z M 7560 1753 C 7599 1703 7572 1620 7518 1620 C 7502 1620 7500 1629 7500 1700 C 7500 1772 7502 1780 7519 1780 C 7530 1780 7548 1768 7560 1753 Z M 7566 1566 C 7590 1546 7594 1535 7594 1492 C 7594 1437 7572 1400 7539 1400 C 7511 1400 7500 1432 7500 1514 C 7500 1583 7502 1590 7519 1590 C 7530 1590 7551 1579 7566 1566 Z" stroke="none" stroke-width="1" stroke-dasharray="" stroke-dashoffset="1" stroke-opacity="1" fill="#013A89" fill-opacity="1"/><path d=" M 9640 1800 C 9640 1795 9646 1790 9653 1790 C 9691 1789 9695 1774 9700 1616 C 9704 1479 9707 1458 9726 1433 C 9782 1357 9935 1350 10013 1420 L 10045 1448 L 10050 1610 C 10055 1774 10059 1789 10098 1790 C 10104 1790 10110 1795 10110 1800 C 10110 1806 10080 1810 10040 1810 C 10000 1810 9970 1806 9970 1800 C 9970 1795 9976 1790 9984 1790 C 10018 1790 10030 1749 10030 1635 C 10030 1506 10019 1459 9983 1430 C 9950 1404 9890 1404 9859 1429 C 9836 1447 9835 1455 9832 1594 C 9829 1716 9831 1745 9844 1765 C 9853 1779 9867 1790 9875 1790 C 9883 1790 9890 1795 9890 1800 C 9890 1806 9842 1810 9765 1810 C 9688 1810 9640 1806 9640 1800 Z" stroke="none" stroke-width="1" stroke-dasharray="" stroke-dashoffset="1" stroke-opacity="1" fill="#013A89" fill-opacity="1"/><path d=" M 13590 1801 C 13590 1795 13596 1790 13604 1790 C 13612 1790 13626 1783 13634 1774 C 13647 1761 13650 1730 13650 1590 C 13650 1450 13647 1419 13634 1406 C 13626 1397 13612 1390 13604 1390 C 13596 1390 13590 1386 13590 1380 C 13590 1374 13640 1370 13720 1370 C 13800 1370 13850 1374 13850 1380 C 13850 1386 13841 1390 13831 1390 C 13797 1390 13780 1428 13780 1502 L 13780 1570 L 13815 1570 C 13885 1570 13949 1590 13975 1622 C 14019 1674 14002 1761 13943 1790 C 13907 1808 13590 1818 13590 1801 Z M 13840 1760 C 13855 1745 13860 1727 13860 1690 C 13860 1635 13837 1600 13800 1600 C 13781 1600 13780 1607 13780 1690 C 13780 1773 13781 1780 13800 1780 C 13811 1780 13829 1771 13840 1760 Z" stroke="none" stroke-width="1" stroke-dasharray="" stroke-dashoffset="1" stroke-opacity="1" fill="#013A89" fill-opacity="1"/><path d=" M 16270 1800 C 16270 1795 16274 1790 16279 1790 C 16303 1790 16320 1756 16320 1708 C 16320 1660 16319 1658 16303 1673 C 16276 1697 16233 1704 16200 1690 C 16116 1655 16094 1482 16164 1407 C 16195 1373 16249 1363 16289 1383 C 16315 1396 16320 1396 16320 1384 C 16320 1366 16335 1366 16396 1386 C 16460 1408 16467 1415 16447 1438 C 16432 1454 16430 1482 16430 1633 L 16430 1810 L 16350 1810 C 16303 1810 16270 1806 16270 1800 Z M 16309 1626 C 16317 1617 16320 1580 16318 1523 C 16315 1435 16315 1435 16288 1432 C 16266 1429 16258 1434 16250 1455 C 16237 1489 16237 1581 16250 1614 C 16261 1643 16290 1649 16309 1626 Z" stroke="none" stroke-width="1" stroke-dasharray="" stroke-dashoffset="1" stroke-opacity="1" fill="#013A89" fill-opacity="1"/><path d=" M 16660 1750 C 16660 1717 16664 1690 16670 1690 C 16676 1690 16680 1700 16680 1713 C 16680 1748 16720 1780 16763 1780 L 16800 1780 L 16800 1613 C 16800 1520 16797 1435 16794 1422 C 16790 1410 16777 1397 16764 1394 C 16708 1380 16749 1370 16865 1370 C 16942 1370 16990 1374 16990 1380 C 16990 1386 16984 1390 16976 1390 C 16968 1390 16954 1400 16946 1412 C 16933 1430 16930 1467 16930 1607 L 16930 1780 L 16968 1780 C 17009 1780 17050 1749 17050 1717 C 17050 1708 17055 1698 17060 1695 C 17066 1691 17070 1712 17070 1749 L 17070 1810 L 16865 1810 L 16660 1810 L 16660 1750 Z" stroke="none" stroke-width="1" stroke-dasharray="" stroke-dashoffset="1" stroke-opacity="1" fill="#013A89" fill-opacity="1"/><path d=" M 17420 1800 C 17420 1794 17427 1787 17435 1784 C 17448 1779 17450 1748 17450 1595 C 17450 1445 17447 1410 17435 1400 C 17406 1376 17421 1370 17510 1370 C 17599 1370 17614 1376 17585 1400 C 17573 1410 17570 1447 17570 1611 L 17570 1810 L 17495 1810 C 17450 1810 17420 1806 17420 1800 Z" stroke="none" stroke-width="1" stroke-dasharray="" stroke-dashoffset="1" stroke-opacity="1" fill="#013A89" fill-opacity="1"/><path d=" M 12260 1790 C 12260 1774 12199 1710 12169 1694 C 12135 1677 12131 1660 12160 1660 C 12179 1660 12180 1653 12180 1540 C 12180 1425 12181 1418 12205 1395 C 12241 1358 12296 1365 12339 1411 C 12361 1435 12357 1458 12334 1439 C 12327 1433 12313 1430 12305 1434 C 12293 1438 12290 1461 12290 1550 L 12290 1661 L 12327 1658 L 12364 1655 L 12426 1516 L 12488 1377 L 12472 1334 C 12463 1310 12453 1290 12450 1290 C 12447 1290 12439 1304 12433 1320 C 12421 1353 12400 1358 12376 1334 C 12343 1302 12372 1230 12417 1230 C 12450 1230 12471 1266 12545 1455 C 12587 1561 12627 1654 12635 1660 C 12661 1681 12652 1690 12605 1690 C 12556 1690 12552 1686 12575 1660 C 12589 1644 12588 1636 12567 1579 L 12542 1515 L 12516 1574 C 12488 1637 12485 1655 12500 1665 C 12529 1683 12500 1690 12400 1690 L 12290 1690 L 12290 1745 C 12290 1787 12287 1800 12275 1800 C 12267 1800 12260 1796 12260 1790 Z" stroke="none" stroke-width="1" stroke-dasharray="" stroke-dashoffset="1" stroke-opacity="1" fill="#013A89" fill-opacity="1"/><path d=" M 14790 1790 C 14790 1774 14729 1710 14699 1694 C 14665 1677 14661 1660 14690 1660 C 14709 1660 14710 1653 14710 1540 C 14710 1425 14711 1418 14735 1395 C 14771 1358 14826 1365 14869 1411 C 14891 1435 14887 1458 14864 1439 C 14857 1433 14843 1430 14835 1434 C 14823 1438 14820 1460 14820 1550 L 14820 1660 L 14850 1660 C 14870 1660 14880 1665 14880 1675 C 14880 1685 14870 1690 14850 1690 C 14820 1690 14820 1691 14820 1745 C 14820 1787 14817 1800 14805 1800 C 14797 1800 14790 1796 14790 1790 Z" stroke="none" stroke-width="1" stroke-dasharray="" stroke-dashoffset="1" stroke-opacity="1" fill="#013A89" fill-opacity="1"/><path d=" M 21550 1790 C 21550 1774 21489 1710 21459 1694 C 21425 1677 21421 1660 21450 1660 C 21469 1660 21470 1653 21470 1540 C 21470 1425 21471 1418 21495 1395 C 21531 1358 21586 1365 21629 1411 C 21651 1435 21647 1458 21624 1439 C 21617 1433 21603 1430 21595 1434 C 21583 1438 21580 1460 21580 1550 L 21580 1660 L 21610 1660 C 21630 1660 21640 1665 21640 1675 C 21640 1685 21630 1690 21610 1690 C 21580 1690 21580 1691 21580 1745 C 21580 1787 21577 1800 21565 1800 C 21557 1800 21550 1796 21550 1790 Z" stroke="none" stroke-width="1" stroke-dasharray="" stroke-dashoffset="1" stroke-opacity="1" fill="#013A89" fill-opacity="1"/><path d=" M 7875 1686 C 7789 1647 7755 1539 7799 1451 C 7848 1357 7971 1344 8039 1427 C 8074 1469 8070 1489 8033 1460 C 7980 1419 7911 1445 7895 1513 L 7888 1540 L 7974 1540 C 8059 1540 8060 1540 8060 1565 C 8060 1604 8034 1657 8006 1675 C 7971 1698 7911 1703 7875 1686 Z M 7947 1658 C 7953 1651 7960 1628 7964 1608 L 7971 1570 L 7930 1570 C 7894 1570 7890 1573 7890 1594 C 7890 1653 7923 1689 7947 1658 Z" stroke="none" stroke-width="1" stroke-dasharray="" stroke-dashoffset="1" stroke-opacity="1" fill="#013A89" fill-opacity="1"/><path d=" M 8940 1689 C 8927 1683 8907 1672 8898 1663 C 8881 1648 8880 1648 8880 1668 C 8880 1689 8875 1690 8805 1690 C 8728 1690 8715 1684 8750 1662 C 8768 1651 8770 1639 8770 1530 C 8770 1421 8768 1409 8750 1398 C 8714 1375 8728 1370 8820 1370 C 8909 1370 8924 1376 8895 1400 C 8883 1410 8880 1436 8880 1516 C 8880 1617 8881 1621 8904 1632 C 8954 1654 8960 1641 8960 1516 C 8960 1450 8956 1399 8950 1395 C 8923 1378 8948 1370 9025 1370 C 9072 1370 9110 1372 9110 1375 C 9110 1378 9101 1389 9090 1400 C 9073 1417 9070 1433 9070 1525 C 9070 1641 9057 1683 9018 1694 C 8987 1702 8970 1701 8940 1689 Z" stroke="none" stroke-width="1" stroke-dasharray="" stroke-dashoffset="1" stroke-opacity="1" fill="#013A89" fill-opacity="1"/><path d=" M 9213 1686 C 9171 1667 9145 1626 9145 1577 C 9145 1546 9152 1532 9177 1510 L 9208 1482 L 9179 1461 C 9146 1437 9141 1398 9165 1363 C 9178 1344 9178 1342 9160 1337 C 9147 1334 9140 1323 9140 1308 C 9140 1262 9171 1243 9257 1234 C 9369 1222 9450 1265 9450 1335 C 9450 1378 9437 1405 9413 1415 C 9403 1420 9357 1426 9310 1429 C 9244 1434 9225 1438 9225 1450 C 9225 1461 9242 1467 9291 1472 C 9328 1475 9369 1486 9383 1495 C 9427 1523 9440 1584 9415 1643 C 9410 1656 9413 1660 9429 1660 C 9441 1660 9450 1666 9450 1675 C 9450 1686 9438 1690 9406 1690 C 9383 1690 9336 1692 9304 1695 C 9264 1699 9235 1696 9213 1686 Z M 9318 1640 C 9347 1584 9312 1481 9272 1506 C 9251 1520 9242 1634 9261 1656 C 9278 1677 9302 1669 9318 1640 Z M 9351 1320 C 9394 1296 9360 1260 9295 1260 C 9231 1260 9196 1295 9238 1319 C 9260 1333 9326 1333 9351 1320 Z" stroke="none" stroke-width="1" stroke-dasharray="" stroke-dashoffset="1" stroke-opacity="1" fill="#013A89" fill-opacity="1"/><path d=" M 10340 1689 C 10327 1683 10307 1672 10298 1663 C 10281 1648 10280 1648 10280 1668 C 10280 1689 10275 1690 10205 1690 C 10128 1690 10115 1684 10150 1662 C 10168 1651 10170 1639 10170 1530 C 10170 1421 10168 1409 10150 1398 C 10114 1375 10128 1370 10220 1370 C 10309 1370 10324 1376 10295 1400 C 10283 1410 10280 1436 10280 1516 C 10280 1617 10281 1621 10304 1632 C 10354 1654 10360 1641 10360 1516 C 10360 1450 10356 1399 10350 1395 C 10323 1378 10348 1370 10425 1370 C 10472 1370 10510 1372 10510 1375 C 10510 1378 10501 1389 10490 1400 C 10473 1417 10470 1433 10470 1525 C 10470 1641 10457 1683 10418 1694 C 10387 1702 10370 1701 10340 1689 Z" stroke="none" stroke-width="1" stroke-dasharray="" stroke-dashoffset="1" stroke-opacity="1" fill="#013A89" fill-opacity="1"/><path d=" M 11135 1686 C 11049 1647 11015 1539 11059 1451 C 11108 1357 11231 1344 11299 1427 C 11334 1469 11330 1489 11293 1460 C 11240 1419 11171 1445 11155 1513 L 11148 1540 L 11234 1540 C 11319 1540 11320 1540 11320 1565 C 11320 1604 11294 1657 11266 1675 C 11231 1698 11171 1703 11135 1686 Z M 11207 1658 C 11213 1651 11220 1628 11224 1608 L 11231 1570 L 11190 1570 C 11154 1570 11150 1573 11150 1594 C 11150 1653 11183 1689 11207 1658 Z" stroke="none" stroke-width="1" stroke-dasharray="" stroke-dashoffset="1" stroke-opacity="1" fill="#013A89" fill-opacity="1"/><path d=" M 11525 1674 C 11501 1648 11500 1648 11500 1669 C 11500 1689 11495 1690 11425 1690 C 11348 1690 11335 1684 11370 1662 C 11388 1651 11390 1639 11390 1530 C 11390 1421 11388 1409 11370 1398 C 11359 1391 11350 1382 11350 1378 C 11350 1373 11393 1370 11445 1370 C 11497 1370 11540 1372 11540 1375 C 11540 1378 11531 1389 11520 1400 C 11503 1417 11500 1433 11500 1514 C 11500 1567 11504 1612 11510 1615 C 11516 1618 11536 1616 11554 1609 C 11597 1594 11620 1608 11620 1651 C 11620 1703 11564 1716 11525 1674 Z" stroke="none" stroke-width="1" stroke-dasharray="" stroke-dashoffset="1" stroke-opacity="1" fill="#013A89" fill-opacity="1"/><path d=" M 11693 1681 C 11675 1670 11658 1649 11654 1635 C 11642 1588 11658 1561 11725 1513 C 11761 1487 11792 1458 11796 1448 C 11803 1423 11784 1400 11755 1400 C 11730 1400 11670 1461 11670 1485 C 11670 1493 11666 1500 11660 1500 C 11654 1500 11650 1472 11650 1435 C 11650 1371 11656 1360 11677 1381 C 11685 1389 11702 1389 11739 1380 C 11827 1359 11890 1395 11890 1468 C 11890 1504 11864 1535 11775 1606 C 11732 1640 11731 1670 11773 1670 C 11799 1670 11850 1626 11850 1604 C 11850 1596 11855 1590 11860 1590 C 11866 1590 11870 1612 11870 1638 C 11870 1686 11870 1687 11838 1687 C 11820 1687 11787 1691 11765 1694 C 11734 1700 11718 1697 11693 1681 Z" stroke="none" stroke-width="1" stroke-dasharray="" stroke-dashoffset="1" stroke-opacity="1" fill="#013A89" fill-opacity="1"/><path d=" M 12950 1691 C 12878 1668 12840 1613 12840 1532 C 12840 1478 12865 1432 12913 1396 C 12952 1367 13048 1367 13086 1396 C 13140 1436 13155 1466 13155 1535 C 13155 1603 13140 1635 13089 1672 C 13061 1693 12986 1703 12950 1691 Z M 13030 1644 C 13036 1630 13040 1581 13040 1535 C 13040 1438 13029 1400 13001 1400 C 12969 1400 12960 1431 12960 1535 C 12960 1588 12965 1640 12970 1651 C 12985 1679 13019 1675 13030 1644 Z" stroke="none" stroke-width="1" stroke-dasharray="" stroke-dashoffset="1" stroke-opacity="1" fill="#013A89" fill-opacity="1"/><path d=" M 14140 1691 C 14068 1668 14030 1613 14030 1532 C 14030 1478 14055 1432 14103 1396 C 14142 1367 14238 1367 14276 1396 C 14330 1436 14345 1466 14345 1535 C 14345 1603 14330 1635 14279 1672 C 14251 1693 14176 1703 14140 1691 Z M 14220 1644 C 14226 1630 14230 1581 14230 1535 C 14230 1438 14219 1400 14191 1400 C 14159 1400 14150 1431 14150 1535 C 14150 1588 14155 1640 14160 1651 C 14175 1679 14209 1675 14220 1644 Z" stroke="none" stroke-width="1" stroke-dasharray="" stroke-dashoffset="1" stroke-opacity="1" fill="#013A89" fill-opacity="1"/><path d=" M 14443 1681 C 14425 1670 14408 1649 14404 1635 C 14392 1588 14408 1561 14475 1513 C 14511 1487 14542 1458 14546 1448 C 14553 1423 14534 1400 14505 1400 C 14480 1400 14420 1461 14420 1485 C 14420 1493 14416 1500 14410 1500 C 14404 1500 14400 1472 14400 1435 C 14400 1371 14406 1360 14427 1381 C 14435 1389 14452 1389 14489 1380 C 14577 1359 14640 1395 14640 1468 C 14640 1504 14614 1535 14525 1606 C 14482 1640 14481 1670 14523 1670 C 14549 1670 14600 1626 14600 1604 C 14600 1596 14605 1590 14610 1590 C 14616 1590 14620 1612 14620 1638 C 14620 1686 14620 1687 14588 1687 C 14570 1687 14537 1691 14515 1694 C 14484 1700 14468 1697 14443 1681 Z" stroke="none" stroke-width="1" stroke-dasharray="" stroke-dashoffset="1" stroke-opacity="1" fill="#013A89" fill-opacity="1"/><path d=" M 14953 1681 C 14935 1670 14918 1649 14914 1635 C 14902 1588 14918 1561 14985 1513 C 15021 1487 15052 1458 15056 1448 C 15063 1423 15044 1400 15015 1400 C 14990 1400 14930 1461 14930 1485 C 14930 1493 14926 1500 14920 1500 C 14914 1500 14910 1472 14910 1435 C 14910 1371 14916 1360 14937 1381 C 14945 1389 14962 1389 14999 1380 C 15087 1359 15150 1395 15150 1468 C 15150 1504 15124 1535 15035 1606 C 14992 1640 14991 1670 15033 1670 C 15059 1670 15110 1626 15110 1604 C 15110 1596 15115 1590 15120 1590 C 15126 1590 15130 1612 15130 1638 C 15130 1686 15130 1687 15098 1687 C 15080 1687 15047 1691 15025 1694 C 14994 1700 14978 1697 14953 1681 Z" stroke="none" stroke-width="1" stroke-dasharray="" stroke-dashoffset="1" stroke-opacity="1" fill="#013A89" fill-opacity="1"/><path d=" M 15445 1685 C 15400 1669 15380 1647 15380 1614 C 15380 1589 15414 1560 15442 1560 C 15469 1560 15490 1598 15479 1628 C 15467 1659 15479 1673 15511 1668 C 15532 1665 15535 1659 15538 1617 C 15541 1579 15538 1569 15523 1564 C 15460 1543 15398 1505 15385 1480 C 15364 1440 15366 1423 15395 1395 C 15426 1363 15458 1363 15506 1396 C 15538 1418 15545 1420 15554 1408 C 15568 1390 15604 1370 15624 1370 C 15632 1370 15653 1382 15671 1397 L 15703 1425 L 15679 1430 C 15656 1436 15655 1440 15650 1541 C 15644 1659 15637 1674 15581 1690 C 15532 1703 15493 1702 15445 1685 Z M 15536 1444 C 15528 1424 15502 1427 15490 1450 C 15478 1472 15499 1525 15522 1532 C 15536 1537 15546 1470 15536 1444 Z" stroke="none" stroke-width="1" stroke-dasharray="" stroke-dashoffset="1" stroke-opacity="1" fill="#013A89" fill-opacity="1"/><path d=" M 15930 1689 C 15917 1683 15897 1672 15888 1663 C 15871 1648 15870 1648 15870 1668 C 15870 1689 15865 1690 15795 1690 C 15718 1690 15705 1684 15740 1662 C 15758 1651 15760 1639 15760 1530 C 15760 1421 15758 1409 15740 1398 C 15704 1375 15718 1370 15810 1370 C 15899 1370 15914 1376 15885 1400 C 15873 1410 15870 1436 15870 1516 C 15870 1617 15871 1621 15894 1632 C 15944 1654 15950 1641 15950 1516 C 15950 1450 15946 1399 15940 1395 C 15913 1378 15938 1370 16015 1370 C 16062 1370 16100 1372 16100 1375 C 16100 1378 16091 1389 16080 1400 C 16063 1417 16060 1433 16060 1525 C 16060 1641 16047 1683 16008 1694 C 15977 1702 15960 1701 15930 1689 Z" stroke="none" stroke-width="1" stroke-dasharray="" stroke-dashoffset="1" stroke-opacity="1" fill="#013A89" fill-opacity="1"/><path d=" M 17195 1686 C 17109 1647 17075 1539 17119 1451 C 17168 1357 17291 1344 17359 1427 C 17394 1469 17390 1489 17353 1460 C 17300 1419 17231 1445 17215 1513 L 17208 1540 L 17294 1540 C 17379 1540 17380 1540 17380 1565 C 17380 1604 17354 1657 17326 1675 C 17291 1698 17231 1703 17195 1686 Z M 17267 1658 C 17273 1651 17280 1628 17284 1608 L 17291 1570 L 17250 1570 C 17214 1570 17210 1573 17210 1594 C 17210 1653 17243 1689 17267 1658 Z" stroke="none" stroke-width="1" stroke-dasharray="" stroke-dashoffset="1" stroke-opacity="1" fill="#013A89" fill-opacity="1"/><path d=" M 17735 1686 C 17649 1647 17615 1539 17659 1451 C 17708 1357 17831 1344 17899 1427 C 17934 1469 17930 1489 17893 1460 C 17840 1419 17771 1445 17755 1513 L 17748 1540 L 17834 1540 C 17919 1540 17920 1540 17920 1565 C 17920 1604 17894 1657 17866 1675 C 17831 1698 17771 1703 17735 1686 Z M 17807 1658 C 17813 1651 17820 1628 17824 1608 L 17831 1570 L 17790 1570 C 17754 1570 17750 1573 17750 1594 C 17750 1653 17783 1689 17807 1658 Z" stroke="none" stroke-width="1" stroke-dasharray="" stroke-dashoffset="1" stroke-opacity="1" fill="#013A89" fill-opacity="1"/><path d=" M 18066 1690 C 17976 1662 17933 1543 17979 1451 C 18030 1352 18165 1345 18227 1439 C 18256 1482 18246 1499 18211 1466 C 18138 1396 18056 1477 18073 1602 C 18083 1677 18130 1693 18130 1621 C 18130 1573 18158 1545 18195 1554 C 18248 1568 18249 1641 18196 1675 C 18165 1696 18105 1702 18066 1690 Z" stroke="none" stroke-width="1" stroke-dasharray="" stroke-dashoffset="1" stroke-opacity="1" fill="#013A89" fill-opacity="1"/><path d=" M 18390 1691 C 18318 1668 18280 1613 18280 1532 C 18280 1478 18305 1432 18353 1396 C 18392 1367 18488 1367 18526 1396 C 18580 1436 18595 1466 18595 1535 C 18595 1603 18580 1635 18529 1672 C 18501 1693 18426 1703 18390 1691 Z M 18470 1644 C 18476 1630 18480 1581 18480 1535 C 18480 1438 18469 1400 18441 1400 C 18409 1400 18400 1431 18400 1535 C 18400 1588 18405 1640 18410 1651 C 18425 1679 18459 1675 18470 1644 Z" stroke="none" stroke-width="1" stroke-dasharray="" stroke-dashoffset="1" stroke-opacity="1" fill="#013A89" fill-opacity="1"/><path d=" M 18816 1675 C 18782 1652 18780 1652 18780 1670 C 18780 1688 18773 1690 18705 1690 C 18628 1690 18615 1684 18650 1662 C 18668 1651 18670 1639 18670 1530 C 18670 1421 18668 1409 18650 1398 C 18614 1375 18628 1370 18720 1370 C 18809 1370 18824 1376 18795 1400 C 18783 1410 18780 1436 18780 1514 C 18780 1618 18787 1640 18821 1640 C 18845 1640 18850 1620 18850 1510 C 18850 1436 18846 1410 18835 1400 C 18806 1376 18821 1370 18905 1370 C 18989 1370 19004 1376 18975 1400 C 18963 1410 18960 1436 18960 1514 C 18960 1618 18967 1640 19001 1640 C 19025 1640 19030 1620 19030 1510 C 19030 1436 19026 1410 19015 1400 C 18986 1376 19001 1370 19085 1370 C 19169 1370 19184 1376 19155 1400 C 19143 1410 19140 1436 19140 1517 C 19140 1647 19126 1686 19077 1695 C 19043 1702 18978 1680 18964 1659 C 18961 1654 18945 1661 18928 1675 C 18891 1706 18863 1707 18816 1675 Z" stroke="none" stroke-width="1" stroke-dasharray="" stroke-dashoffset="1" stroke-opacity="1" fill="#013A89" fill-opacity="1"/><path d=" M 19376 1675 C 19342 1652 19340 1652 19340 1670 C 19340 1688 19333 1690 19265 1690 C 19188 1690 19175 1684 19210 1662 C 19228 1651 19230 1639 19230 1530 C 19230 1421 19228 1409 19210 1398 C 19174 1375 19188 1370 19280 1370 C 19369 1370 19384 1376 19355 1400 C 19343 1410 19340 1436 19340 1514 C 19340 1618 19347 1640 19381 1640 C 19405 1640 19410 1620 19410 1510 C 19410 1436 19406 1410 19395 1400 C 19366 1376 19381 1370 19465 1370 C 19549 1370 19564 1376 19535 1400 C 19523 1410 19520 1436 19520 1514 C 19520 1618 19527 1640 19561 1640 C 19585 1640 19590 1620 19590 1510 C 19590 1436 19586 1410 19575 1400 C 19546 1376 19561 1370 19645 1370 C 19729 1370 19744 1376 19715 1400 C 19703 1410 19700 1436 19700 1517 C 19700 1647 19686 1686 19637 1695 C 19603 1702 19538 1680 19524 1659 C 19521 1654 19505 1661 19488 1675 C 19451 1706 19423 1707 19376 1675 Z" stroke="none" stroke-width="1" stroke-dasharray="" stroke-dashoffset="1" stroke-opacity="1" fill="#013A89" fill-opacity="1"/><path d=" M 20360 1689 C 20347 1683 20327 1672 20318 1663 C 20301 1648 20300 1648 20300 1668 C 20300 1689 20295 1690 20225 1690 C 20148 1690 20135 1684 20170 1662 C 20188 1651 20190 1639 20190 1530 C 20190 1421 20188 1409 20170 1398 C 20134 1375 20148 1370 20240 1370 C 20329 1370 20344 1376 20315 1400 C 20303 1410 20300 1436 20300 1516 C 20300 1617 20301 1621 20324 1632 C 20374 1654 20380 1641 20380 1516 C 20380 1450 20376 1399 20370 1395 C 20343 1378 20368 1370 20445 1370 C 20492 1370 20530 1372 20530 1375 C 20530 1378 20521 1389 20510 1400 C 20493 1417 20490 1433 20490 1525 C 20490 1641 20477 1683 20438 1694 C 20407 1702 20390 1701 20360 1689 Z" stroke="none" stroke-width="1" stroke-dasharray="" stroke-dashoffset="1" stroke-opacity="1" fill="#013A89" fill-opacity="1"/><path d=" M 20876 1690 C 20786 1662 20743 1543 20789 1451 C 20840 1352 20975 1345 21037 1439 C 21066 1482 21056 1499 21021 1466 C 20948 1396 20866 1477 20883 1602 C 20893 1677 20940 1693 20940 1621 C 20940 1573 20968 1545 21005 1554 C 21058 1568 21059 1641 21006 1675 C 20975 1696 20915 1702 20876 1690 Z" stroke="none" stroke-width="1" stroke-dasharray="" stroke-dashoffset="1" stroke-opacity="1" fill="#013A89" fill-opacity="1"/><path d=" M 21165 1685 C 21120 1669 21100 1647 21100 1614 C 21100 1589 21134 1560 21162 1560 C 21189 1560 21210 1598 21199 1628 C 21187 1659 21199 1673 21231 1668 C 21252 1665 21255 1659 21258 1617 C 21261 1579 21258 1569 21243 1564 C 21180 1543 21118 1505 21105 1480 C 21084 1440 21086 1423 21115 1395 C 21146 1363 21178 1363 21226 1396 C 21258 1418 21265 1420 21274 1408 C 21288 1390 21324 1370 21344 1370 C 21352 1370 21373 1382 21391 1397 L 21423 1425 L 21399 1430 C 21376 1436 21375 1440 21370 1541 C 21364 1659 21357 1674 21301 1690 C 21252 1703 21213 1702 21165 1685 Z M 21256 1444 C 21248 1424 21222 1427 21210 1450 C 21198 1472 21219 1525 21242 1532 C 21256 1537 21266 1470 21256 1444 Z" stroke="none" stroke-width="1" stroke-dasharray="" stroke-dashoffset="1" stroke-opacity="1" fill="#013A89" fill-opacity="1"/><path d=" M 22000 1691 C 21928 1668 21890 1613 21890 1532 C 21890 1478 21915 1432 21963 1396 C 22002 1367 22098 1367 22136 1396 C 22190 1436 22205 1466 22205 1535 C 22205 1603 22190 1635 22139 1672 C 22111 1693 22036 1703 22000 1691 Z M 22080 1644 C 22086 1630 22090 1581 22090 1535 C 22090 1438 22079 1400 22051 1400 C 22019 1400 22010 1431 22010 1535 C 22010 1588 22015 1640 22020 1651 C 22035 1679 22069 1675 22080 1644 Z" stroke="none" stroke-width="1" stroke-dasharray="" stroke-dashoffset="1" stroke-opacity="1" fill="#013A89" fill-opacity="1"/><path d=" M 22450 1689 C 22437 1683 22417 1672 22408 1663 C 22391 1648 22390 1648 22390 1668 C 22390 1689 22385 1690 22315 1690 C 22238 1690 22225 1684 22260 1662 C 22278 1651 22280 1639 22280 1530 C 22280 1421 22278 1409 22260 1398 C 22224 1375 22238 1370 22330 1370 C 22419 1370 22434 1376 22405 1400 C 22393 1410 22390 1436 22390 1516 C 22390 1617 22391 1621 22414 1632 C 22464 1654 22470 1641 22470 1516 C 22470 1450 22466 1399 22460 1395 C 22433 1378 22458 1370 22535 1370 C 22582 1370 22620 1372 22620 1375 C 22620 1378 22611 1389 22600 1400 C 22583 1417 22580 1433 22580 1525 C 22580 1641 22567 1683 22528 1694 C 22497 1702 22480 1701 22450 1689 Z" stroke="none" stroke-width="1" stroke-dasharray="" stroke-dashoffset="1" stroke-opacity="1" fill="#013A89" fill-opacity="1"/><path d=" M 22693 1681 C 22675 1670 22658 1649 22654 1635 C 22642 1588 22658 1561 22725 1513 C 22761 1487 22792 1458 22796 1448 C 22803 1423 22784 1400 22755 1400 C 22730 1400 22670 1461 22670 1485 C 22670 1493 22666 1500 22660 1500 C 22654 1500 22650 1472 22650 1435 C 22650 1371 22656 1360 22677 1381 C 22685 1389 22702 1389 22739 1380 C 22827 1359 22890 1395 22890 1468 C 22890 1504 22864 1535 22775 1606 C 22732 1640 22731 1670 22773 1670 C 22799 1670 22850 1626 22850 1604 C 22850 1596 22855 1590 22860 1590 C 22866 1590 22870 1612 22870 1638 C 22870 1686 22870 1687 22838 1687 C 22820 1687 22787 1691 22765 1694 C 22734 1700 22718 1697 22693 1681 Z" stroke="none" stroke-width="1" stroke-dasharray="" stroke-dashoffset="1" stroke-opacity="1" fill="#013A89" fill-opacity="1"/><path d=" M 8100 1684 C 8100 1680 8108 1671 8118 1664 C 8133 1653 8135 1634 8135 1530 C 8135 1425 8133 1407 8118 1399 C 8081 1378 8103 1370 8195 1370 C 8247 1370 8290 1373 8290 1378 C 8290 1382 8281 1391 8270 1398 C 8252 1409 8250 1421 8250 1550 L 8250 1690 L 8175 1690 C 8134 1690 8100 1687 8100 1684 Z" stroke="none" stroke-width="1" stroke-dasharray="" stroke-dashoffset="1" stroke-opacity="1" fill="#013A89" fill-opacity="1"/><path d=" M 8310 1682 C 8310 1678 8319 1669 8330 1662 C 8349 1651 8350 1639 8350 1455 C 8350 1340 8346 1260 8341 1260 C 8335 1260 8330 1274 8328 1291 C 8322 1351 8259 1356 8252 1298 C 8246 1246 8325 1215 8393 1244 C 8452 1268 8460 1299 8460 1510 L 8460 1690 L 8385 1690 C 8344 1690 8310 1687 8310 1682 Z" stroke="none" stroke-width="1" stroke-dasharray="" stroke-dashoffset="1" stroke-opacity="1" fill="#013A89" fill-opacity="1"/><path d=" M 8520 1684 C 8520 1680 8528 1671 8538 1664 C 8553 1653 8555 1634 8555 1530 C 8555 1425 8553 1407 8538 1399 C 8501 1378 8523 1370 8615 1370 C 8667 1370 8710 1373 8710 1378 C 8710 1382 8701 1391 8690 1398 C 8672 1409 8670 1421 8670 1550 L 8670 1690 L 8595 1690 C 8554 1690 8520 1687 8520 1684 Z" stroke="none" stroke-width="1" stroke-dasharray="" stroke-dashoffset="1" stroke-opacity="1" fill="#013A89" fill-opacity="1"/><path d=" M 10540 1684 C 10540 1680 10548 1671 10558 1664 C 10573 1653 10575 1634 10575 1530 C 10575 1425 10573 1407 10558 1399 C 10521 1378 10543 1370 10635 1370 C 10687 1370 10730 1373 10730 1378 C 10730 1382 10721 1391 10710 1398 C 10692 1409 10690 1421 10690 1550 L 10690 1690 L 10615 1690 C 10574 1690 10540 1687 10540 1684 Z" stroke="none" stroke-width="1" stroke-dasharray="" stroke-dashoffset="1" stroke-opacity="1" fill="#013A89" fill-opacity="1"/><path d=" M 10730 1683 C 10730 1680 10736 1669 10744 1661 C 10752 1652 10783 1582 10812 1505 C 10847 1412 10871 1364 10882 1362 C 10895 1360 10908 1389 10945 1501 C 10971 1579 11001 1650 11011 1658 C 11040 1683 11034 1690 10985 1690 C 10936 1690 10932 1686 10955 1660 C 10968 1645 10968 1637 10949 1580 C 10928 1520 10927 1518 10915 1541 C 10889 1591 10876 1650 10888 1662 C 10911 1685 10899 1690 10815 1690 C 10768 1690 10730 1687 10730 1683 Z" stroke="none" stroke-width="1" stroke-dasharray="" stroke-dashoffset="1" stroke-opacity="1" fill="#013A89" fill-opacity="1"/><path d=" M 11930 1684 C 11930 1680 11938 1671 11948 1664 C 11963 1653 11965 1634 11965 1530 C 11965 1425 11963 1407 11948 1399 C 11911 1378 11933 1370 12025 1370 C 12077 1370 12120 1373 12120 1378 C 12120 1382 12111 1391 12100 1398 C 12082 1409 12080 1421 12080 1550 L 12080 1690 L 12005 1690 C 11964 1690 11930 1687 11930 1684 Z" stroke="none" stroke-width="1" stroke-dasharray="" stroke-dashoffset="1" stroke-opacity="1" fill="#013A89" fill-opacity="1"/><path d=" M 19760 1681 C 19760 1676 19767 1667 19775 1660 C 19786 1651 19790 1626 19790 1561 C 19790 1456 19803 1405 19836 1384 C 19866 1363 19918 1370 19960 1400 L 19990 1421 L 19990 1400 C 19990 1382 19994 1379 20013 1384 C 20025 1388 20056 1395 20083 1401 C 20130 1412 20143 1426 20115 1436 C 20103 1441 20100 1465 20100 1566 L 20100 1690 L 20030 1690 C 19992 1690 19960 1688 19960 1686 C 19960 1684 19967 1669 19975 1654 C 19985 1635 19990 1596 19990 1544 C 19990 1478 19987 1460 19972 1447 C 19920 1400 19900 1440 19900 1586 L 19900 1690 L 19830 1690 C 19792 1690 19760 1686 19760 1681 Z" stroke="none" stroke-width="1" stroke-dasharray="" stroke-dashoffset="1" stroke-opacity="1" fill="#013A89" fill-opacity="1"/><path d=" M 20560 1684 C 20560 1680 20568 1671 20578 1664 C 20593 1653 20595 1634 20595 1530 C 20595 1425 20593 1407 20578 1399 C 20541 1378 20563 1370 20655 1370 C 20707 1370 20750 1373 20750 1378 C 20750 1382 20741 1391 20730 1398 C 20712 1409 20710 1421 20710 1550 L 20710 1690 L 20635 1690 C 20594 1690 20560 1687 20560 1684 Z" stroke="none" stroke-width="1" stroke-dasharray="" stroke-dashoffset="1" stroke-opacity="1" fill="#013A89" fill-opacity="1"/><path d=" M 21670 1684 C 21670 1680 21678 1671 21688 1664 C 21703 1653 21705 1634 21705 1530 C 21705 1425 21703 1407 21688 1399 C 21651 1378 21673 1370 21765 1370 C 21817 1370 21860 1373 21860 1378 C 21860 1382 21851 1391 21840 1398 C 21822 1409 21820 1421 21820 1550 L 21820 1690 L 21745 1690 C 21704 1690 21670 1687 21670 1684 Z" stroke="none" stroke-width="1" stroke-dasharray="" stroke-dashoffset="1" stroke-opacity="1" fill="#013A89" fill-opacity="1"/></g></svg>